<svg xmlns="http://www.w3.org/2000/svg" viewBox="0 0 500 500"><g id="freepik--background-complete--inject-3"><rect x="216.06" y="41.49" width="99.46" height="144.17" style="fill:#e0e0e0"></rect><rect x="211.07" y="41.49" width="99.46" height="144.17" style="fill:#f5f5f5"></rect><rect x="223.43" y="57.11" width="74.75" height="112.94" style="fill:#fff"></rect><path d="M298.18,170.05s0-.19,0-.56,0-.9,0-1.6c0-1.42,0-3.49,0-6.19,0-5.41,0-13.3-.07-23.27,0-19.91-.07-48.11-.12-81.32l.25.25-74.74,0h0l.27-.27c0,42.6,0,81.89,0,112.94l-.22-.22,54.41.11,15,.06,3.94,0,1.37,0-1.32,0-3.91,0-15,.06-54.54.11h-.22v-.21c0-31.05,0-70.34-.05-112.94v-.27h.28l74.74,0h.25v.25c-.05,33.27-.1,61.53-.13,81.49,0,9.94-.05,17.8-.06,23.2,0,2.68,0,4.74,0,6.15,0,.68,0,1.21,0,1.57S298.18,170.05,298.18,170.05Z" style="fill:#e0e0e0"></path><path d="M310.81,41.49A15.82,15.82,0,0,1,309,44.07c-1.15,1.55-2.79,3.65-4.67,5.92s-3.62,4.29-4.91,5.72a17.65,17.65,0,0,1-2.19,2.23,18.29,18.29,0,0,1,1.9-2.48L304,49.65l4.78-5.82A19.66,19.66,0,0,1,310.81,41.49Z" style="fill:#e0e0e0"></path><path d="M298.56,169.68a91.9,91.9,0,0,0,13,16.31" style="fill:#fff"></path><path d="M311.6,186a14.73,14.73,0,0,1-2.28-2.07c-1.33-1.35-3.11-3.29-4.92-5.55a73.26,73.26,0,0,1-4.33-6,14.38,14.38,0,0,1-1.51-2.67,21.2,21.2,0,0,1,1.83,2.46c1.1,1.54,2.64,3.64,4.44,5.89s3.51,4.22,4.77,5.63A21.67,21.67,0,0,1,311.6,186Z" style="fill:#e0e0e0"></path><path d="M211.06,185.55l13-16.08" style="fill:#fff"></path><path d="M224.09,169.47a99.94,99.94,0,0,1-6.31,8.21,103,103,0,0,1-6.72,7.87,95.8,95.8,0,0,1,6.3-8.21A99.12,99.12,0,0,1,224.09,169.47Z" style="fill:#e0e0e0"></path><path d="M211.07,41.49a91.8,91.8,0,0,1,6.33,7.56,93.71,93.71,0,0,1,5.9,7.9A89.78,89.78,0,0,1,217,49.39,91.86,91.86,0,0,1,211.07,41.49Z" style="fill:#e0e0e0"></path><rect x="249.86" y="80.04" width="25.03" height="71.06" style="fill:#e0e0e0"></rect><polygon points="463.62 57.33 463.62 133.57 354.13 133.57 350.18 57.87 463.62 57.33" style="fill:#e0e0e0"></polygon><rect x="367.16" y="40.89" width="75.54" height="109.5" transform="translate(309.29 500.57) rotate(-90)" style="fill:#fff"></rect><path d="M460.2,133.93H349.66V57.35H460.2Zm-109.5-1H459.16V58.39H350.7Z" style="fill:#e0e0e0"></path><rect x="362.04" y="67.25" width="85.78" height="56.77" style="fill:#fff"></rect><path d="M447.82,67.25l-.42,0h-1.22l-4.71,0-17.68.07L362,67.5l.25-.25c0,17.35,0,36.57,0,56.77h0l-.27-.27,85.78,0-.22.22c0-17.28.09-31.45.12-41.31,0-4.93,0-8.78,0-11.42q0-2,0-3c0-.69,0-1,0-1s0,.33,0,1,0,1.67,0,3c0,2.63,0,6.47.05,11.37,0,9.9.07,24.11.12,41.45v.21h-.22L362,124.3h-.27V124h0c0-20.2,0-39.42,0-56.77V67H362l61.91.12,17.62.06,4.66,0,1.2,0Z" style="fill:#e0e0e0"></path><path d="M350.18,57.66a9,9,0,0,1,1.88,1.22c1.12.8,2.65,1.95,4.3,3.27s3.09,2.56,4.11,3.5a9,9,0,0,1,1.57,1.6,75.4,75.4,0,0,1-6-4.68A61.63,61.63,0,0,1,350.18,57.66Z" style="fill:#e0e0e0"></path><path d="M459.68,57.87a54.93,54.93,0,0,1-5.76,4.9,53.55,53.55,0,0,1-6.1,4.48,54.93,54.93,0,0,1,5.76-4.9A53.55,53.55,0,0,1,459.68,57.87Z" style="fill:#e0e0e0"></path><path d="M459.59,133.42l-12.21-9.89" style="fill:#fff"></path><path d="M447.38,123.53a55.37,55.37,0,0,1,6.28,4.73,58.14,58.14,0,0,1,5.93,5.16,56.3,56.3,0,0,1-6.27-4.74A59.61,59.61,0,0,1,447.38,123.53Z" style="fill:#e0e0e0"></path><path d="M350.18,133.41a51.78,51.78,0,0,1,5.7-4.85,50.72,50.72,0,0,1,6-4.43,53.1,53.1,0,0,1-5.7,4.85A50.72,50.72,0,0,1,350.18,133.41Z" style="fill:#e0e0e0"></path><rect x="396.94" y="67.46" width="19.01" height="53.97" transform="translate(312 500.89) rotate(-90)" style="fill:#e0e0e0"></rect><polygon points="152.78 57.32 152.78 133.55 43.28 133.55 39.33 57.85 152.78 57.32" style="fill:#e0e0e0"></polygon><rect x="56.31" y="40.87" width="75.54" height="109.5" transform="translate(-1.54 189.7) rotate(-90)" style="fill:#fff"></rect><path d="M149.35,133.91H38.81V57.33H149.35Zm-109.5-1H148.31V58.37H39.85Z" style="fill:#e0e0e0"></path><rect x="51.19" y="67.24" width="85.78" height="56.77" style="fill:#fff"></rect><path d="M137,67.24h-1.64l-4.71,0-17.68.07-61.75.12.25-.24c0,17.34,0,36.56,0,56.76h0l-.27-.27,85.78.05-.21.22c0-17.28.08-31.44.11-41.31,0-4.93,0-8.78,0-11.42q0-2,0-3c0-.68,0-1,0-1s0,.33,0,1,0,1.68,0,3c0,2.63,0,6.47,0,11.38,0,9.89.07,24.1.12,41.44v.21H137l-85.78.06h-.27V124h0c0-20.2,0-39.42,0-56.76V67h.25l61.91.12,17.62.07,4.67,0h1.19Z" style="fill:#e0e0e0"></path><path d="M39.33,57.64a8.9,8.9,0,0,1,1.89,1.22c1.12.81,2.64,2,4.29,3.27s3.09,2.57,4.11,3.5a8.45,8.45,0,0,1,1.57,1.61c-.1.11-2.73-2.06-6-4.69A61.63,61.63,0,0,1,39.33,57.64Z" style="fill:#e0e0e0"></path><path d="M148.83,57.85a53.56,53.56,0,0,1-5.76,4.9,54.47,54.47,0,0,1-6.1,4.49,52.92,52.92,0,0,1,5.76-4.91A53.55,53.55,0,0,1,148.83,57.85Z" style="fill:#e0e0e0"></path><path d="M148.74,133.4l-12.2-9.89" style="fill:#fff"></path><path d="M136.54,123.51a56.3,56.3,0,0,1,6.27,4.74,57.4,57.4,0,0,1,5.93,5.15,56.9,56.9,0,0,1-6.27-4.73A56.73,56.73,0,0,1,136.54,123.51Z" style="fill:#e0e0e0"></path><path d="M39.33,133.39a53.1,53.1,0,0,1,5.7-4.85,53.13,53.13,0,0,1,6-4.43,51.78,51.78,0,0,1-5.7,4.85A49.8,49.8,0,0,1,39.33,133.39Z" style="fill:#e0e0e0"></path><rect x="86.09" y="67.44" width="19.01" height="53.97" transform="translate(1.17 190.02) rotate(-90)" style="fill:#e0e0e0"></rect><path d="M368.7,377.82S335,396.6,334.78,404.32c-.08,2.49-1,44.07-1,56.21h38.74l.65-41.35,3.75,41.35H417l.74-40.06s22.57-3.94,29.74-8.49-2.92-36.89-2.92-36.89Z" style="fill:#e0e0e0"></path><path d="M377.35,321c-1.07,0-8.55,13.55-14,23.74a19.54,19.54,0,0,1-18.59,10.23h0a19.55,19.55,0,0,1-18-16.6l-4.61-52.73L340.62,281l7.53,41.29,4.63-13.12Z" style="fill:#f5f5f5"></path><path d="M340.78,284.82l-.61-9.25s-2.61-20.77-2.61-22.8c0-2.34-1.13-2.91-2-2.85-1.34.09-2.3,1.75-2.36,3.76,0,.69.06,11.67.06,11.67a25.5,25.5,0,0,0-2.12-3c-1.63-2.06-5.44-3.23-9.35-3.11s-5,.51-5,2a2,2,0,0,0,.77,1.48,3.88,3.88,0,0,0,2.58.89c6.27-.12,7.95,3.23,7.95,3.23l.08,1.21s-3.81-2.72-6.84-1.57a3.72,3.72,0,0,0-1.21.75,4.91,4.91,0,0,0-4.25,7.31,2.05,2.05,0,0,0,2,1.23,2.58,2.58,0,0,0,1.11-.68,4.75,4.75,0,0,1,.56-.41l.7,3.36s2,7.47,2.47,10.81" style="fill:#f5f5f5"></path><path d="M339,284.07a2.86,2.86,0,0,1-3-1.55c-.62-1-.88-2.21-1.42-3.27-1.63-3.17-5.58-4.69-7.06-7.93-.21-.46-.32-1.08.08-1.38s.89-.05,1.29.17l10.33,5.72" style="fill:#f5f5f5"></path><path d="M339.25,275.83a4.37,4.37,0,0,0-1.05-.73c-.7-.44-1.72-1-3-1.78l-4.48-2.57-1.3-.73a2.34,2.34,0,0,0-1.7-.49,1,1,0,0,0-.68.89,2,2,0,0,0,.17.95,7.81,7.81,0,0,0,.89,1.5c1.43,1.86,3.27,3,4.61,4.38a9,9,0,0,1,1.64,2.1c.39.73.63,1.5.93,2.19a4.19,4.19,0,0,0,2.4,2.58,1.53,1.53,0,0,0,1.3-.05,3.71,3.71,0,0,1-1.21-.2,4,4,0,0,1-2-2.51c-.27-.67-.49-1.46-.89-2.27a9.18,9.18,0,0,0-1.69-2.27c-1.37-1.44-3.2-2.63-4.51-4.36a6.71,6.71,0,0,1-.81-1.35c-.2-.44-.17-.9.09-.95s.75.17,1.19.42l1.31.71,4.55,2.44c1.31.69,2.36,1.23,3.1,1.6A4.85,4.85,0,0,0,339.25,275.83Z" style="fill:#e0e0e0"></path><path d="M328.31,268.18a4.93,4.93,0,0,0-.72-2.11,3.75,3.75,0,0,0-1.91-1.39,10,10,0,0,0-3-.43,14.61,14.61,0,0,1-3.1-.27,4.81,4.81,0,0,1-2.3-1.15,1.92,1.92,0,0,1-.62-1.62c.06-.41.19-.61.21-.6s0,.23,0,.61a1.81,1.81,0,0,0,.66,1.39,4.79,4.79,0,0,0,2.18,1,16.63,16.63,0,0,0,3,.23,9.06,9.06,0,0,1,3.09.49,3.93,3.93,0,0,1,2,1.59,3.53,3.53,0,0,1,.53,1.65A1.24,1.24,0,0,1,328.31,268.18Z" style="fill:#e0e0e0"></path><path d="M333.24,252.9a11.07,11.07,0,0,1,0,2.19c0,1.49,0,3.28-.06,5.25s0,3.75,0,5.25a11.32,11.32,0,0,1-.05,2.18,10.4,10.4,0,0,1-.26-2.17c-.09-1.34-.15-3.21-.15-5.26s.09-3.92.19-5.27A10.9,10.9,0,0,1,333.24,252.9Z" style="fill:#e0e0e0"></path><path d="M325.83,270.65a2.81,2.81,0,0,1-.63-.25,2.05,2.05,0,0,0-1.69-.08,1.09,1.09,0,0,0-.57.91,6,6,0,0,0,.11,1.42,2.5,2.5,0,0,1-.27,1.72,2.07,2.07,0,0,1-1.67.87,2.35,2.35,0,0,1-1.71-.75,2.91,2.91,0,0,1-.81-1.52,9.6,9.6,0,0,1,0-2.81,5.61,5.61,0,0,1,.56-1.81,1.32,1.32,0,0,1,.44-.53s-.12.21-.29.61a6.61,6.61,0,0,0-.41,1.77,10.23,10.23,0,0,0,.05,2.69,2.33,2.33,0,0,0,2.12,1.91,1.66,1.66,0,0,0,1.33-.67,2.05,2.05,0,0,0,.22-1.43,5.56,5.56,0,0,1-.06-1.52,1.38,1.38,0,0,1,.79-1.13,2.12,2.12,0,0,1,1.89.2C325.66,270.47,325.85,270.63,325.83,270.65Z" style="fill:#e0e0e0"></path><path d="M319.58,274.16s.08.23-.06.62a1.91,1.91,0,0,1-1.28,1.13,2.53,2.53,0,0,1-2.4-.75,4.1,4.1,0,0,1-1.07-2.88,5,5,0,0,1,.94-2.93,4.74,4.74,0,0,1,2-1.57,4.67,4.67,0,0,1,1.64-.39,1.41,1.41,0,0,1,.61.06,8.26,8.26,0,0,0-2.12.61,4.74,4.74,0,0,0-1.76,1.52,4.8,4.8,0,0,0-.83,2.7,3.87,3.87,0,0,0,.93,2.61,2.24,2.24,0,0,0,2,.72,1.81,1.81,0,0,0,1.19-.9C319.54,274.38,319.54,274.16,319.58,274.16Z" style="fill:#e0e0e0"></path><path d="M327.13,281.5a1.79,1.79,0,0,1,1.05,0,4.17,4.17,0,0,1,2.28,1.38l-.37.11a12.08,12.08,0,0,1,.25-1.46A9.33,9.33,0,0,1,332.6,277a23.55,23.55,0,0,0-1.84,4.68c-.11.49-.19,1-.25,1.41l-.07.49-.3-.38a4.34,4.34,0,0,0-2-1.4C327.51,281.57,327.13,281.55,327.13,281.5Z" style="fill:#e0e0e0"></path><path d="M326.93,262.82c.1.05-.32.84-1.29,1.25a1.94,1.94,0,0,1-1.79.08c0-.12.79-.1,1.62-.48S326.83,262.75,326.93,262.82Z" style="fill:#e0e0e0"></path><path d="M444.05,328.87l32.32-7.95s-2.05-5-7.75-21.9c-5.27-15.62-9.82-21-9.82-21s-16.51-9.11-26.2-14.38l-6.79-7.17v.72L419.5,260l-10,4.39-9.6-3.52-4-1.48-1.41,2.8-17.13,4.71s-12.22,4.45-20.09,22.41c-9.69,22.13-10.38,26-10.38,26L372.19,330,368,379.44l77.44.05-1.53-37.88Z" style="fill:#e0e0e0"></path><path d="M439.59,289.89a3.93,3.93,0,0,1,.09-.8,11,11,0,0,1,.61-2.1,13.35,13.35,0,0,1,4.41-5.63,15.53,15.53,0,0,1,6.62-2.76,14.17,14.17,0,0,1,2.17-.22,3.87,3.87,0,0,1,.8,0c0,.06-1.14.06-2.93.42a16.39,16.39,0,0,0-6.47,2.79,13.76,13.76,0,0,0-4.39,5.47A22.86,22.86,0,0,0,439.59,289.89Z" style="fill:#ebebeb"></path><path d="M476.37,320.92l-.17.06-.49.13-1.92.5-7.07,1.74L443.36,329l-.14,0-.16,0,0-.17c-1.56-9.21-3-17.54-4-23.6l-1.17-7.15c-.13-.83-.23-1.48-.31-1.95l-.07-.5c0-.12,0-.18,0-.18a1.37,1.37,0,0,1,0,.17c0,.13.07.3.11.5.08.47.21,1.12.36,1.94.3,1.71.74,4.14,1.27,7.13,1.05,6.06,2.5,14.38,4.09,23.59l-.19-.13.14,0,23.38-5.55,7.09-1.65,1.93-.43.51-.1Z" style="fill:#ebebeb"></path><path d="M394.48,262.19a3,3,0,0,1,.11.5c.07.37.15.83.24,1.4l0,0a50.15,50.15,0,0,0,7.07,7.06l.95.76c.3.24.65.47.9.34s.4-.55.59-.86l.55-1c.73-1.24,1.43-2.33,2-3.22s1.13-1.61,1.51-2.08q.29-.36.45-.54l.18-.17a6.88,6.88,0,0,1-.53.78c-.35.5-.84,1.22-1.42,2.13s-1.26,2-2,3.25l-.54.95-.27.5a1.16,1.16,0,0,1-.45.49.81.81,0,0,1-.7,0,2.86,2.86,0,0,1-.53-.35l-1-.76a42.57,42.57,0,0,1-7-7.21l0,0v0c-.06-.57-.12-1-.16-1.41A1.8,1.8,0,0,1,394.48,262.19Z" style="fill:#ebebeb"></path><path d="M431.54,263.24s-.08.06-.25.17l-.76.43-2.78,1.59c-2.35,1.34-5.57,3.24-9,5.46-1.5,1-2.92,1.9-4.22,2.77l-.13.09-.08-.14c-1.44-2.52-2.62-4.7-3.4-6.28-.39-.79-.68-1.42-.86-1.86a4.18,4.18,0,0,1-.25-.7,5.09,5.09,0,0,1,.34.66c.21.42.53,1,.94,1.82.82,1.54,2,3.71,3.49,6.21l-.21,0c1.28-.88,2.7-1.83,4.2-2.79,3.49-2.22,6.73-4.1,9.11-5.39,1.19-.65,2.16-1.15,2.84-1.5l.78-.38Z" style="fill:#ebebeb"></path><path d="M425.81,257.22l.08-40.9a21.88,21.88,0,0,0-22.4-21.94l-.33,0a22.91,22.91,0,0,0-21,22.9c0,10.44.2,21.77.73,27.31,1.12,11.76,13.05,12.62,13.05,12.62s0,.83,0,2.15l13.62,5Z" style="fill:#f5f5f5"></path><path d="M395.89,257.07a27.5,27.5,0,0,0,15-5.63s-2.93,8.77-14.77,8.68Z" style="fill:#ebebeb"></path><path d="M386.78,223.71a1.68,1.68,0,0,0,1.76,1.56,1.61,1.61,0,0,0,1.61-1.66,1.68,1.68,0,0,0-1.76-1.56A1.61,1.61,0,0,0,386.78,223.71Z" style="fill:#e0e0e0"></path><path d="M385.16,222c.23.2,1.42-.84,3.23-1s3.21.65,3.39.41-.16-.48-.77-.85a4.62,4.62,0,0,0-2.73-.61,4.47,4.47,0,0,0-2.56,1.07C385.2,221.52,385.05,221.93,385.16,222Z" style="fill:#e0e0e0"></path><path d="M404.39,223a1.69,1.69,0,0,0,1.77,1.56,1.6,1.6,0,0,0,1.6-1.66,1.68,1.68,0,0,0-1.76-1.56A1.62,1.62,0,0,0,404.39,223Z" style="fill:#e0e0e0"></path><path d="M403,220.89c.22.2,1.42-.85,3.23-1s3.21.65,3.39.41-.15-.49-.77-.86a4.63,4.63,0,0,0-2.74-.6,4.47,4.47,0,0,0-2.55,1.06C403,220.39,402.87,220.8,403,220.89Z" style="fill:#e0e0e0"></path><path d="M397.52,234.85a12.34,12.34,0,0,0-3-.28c-.47,0-.91-.07-1-.38a2.32,2.32,0,0,1,.2-1.39c.34-1.16.7-2.37,1.07-3.64,1.49-5.16,2.52-9.4,2.31-9.45s-1.58,4.08-3.06,9.25c-.36,1.27-.7,2.48-1,3.65a2.7,2.7,0,0,0-.09,1.83,1.15,1.15,0,0,0,.82.61,3.19,3.19,0,0,0,.79,0A11.62,11.62,0,0,0,397.52,234.85Z" style="fill:#e0e0e0"></path><path d="M403,235.66c-.3,0-.14,2-1.7,3.51s-3.68,1.49-3.67,1.77c0,.12.5.34,1.38.29a4.86,4.86,0,0,0,3.07-1.36,4.27,4.27,0,0,0,1.31-2.93C403.34,236.11,403.08,235.64,403,235.66Z" style="fill:#e0e0e0"></path><path d="M401.92,213.83c.22.48,2,.1,4.15.18s3.91.51,4.16.05c.11-.22-.23-.66-1-1.08a7.19,7.19,0,0,0-6.33-.17C402.19,213.19,401.83,213.61,401.92,213.83Z" style="fill:#e0e0e0"></path><path d="M385.39,216.73c.35.38,1.56-.15,3.06-.29s2.79.05,3.05-.41c.11-.22-.12-.61-.71-1a4.26,4.26,0,0,0-2.55-.46,4.21,4.21,0,0,0-2.37,1C385.37,216.1,385.23,216.54,385.39,216.73Z" style="fill:#e0e0e0"></path><path d="M412,204.47l.07,0a9.37,9.37,0,0,1,3.94,5.71,1.55,1.55,0,0,0,.05.23c.74,3.33.94,6.75,1.71,10.06s.63,5.85,3.94,6.6a4.44,4.44,0,0,0,4.63-1.88,2.89,2.89,0,0,0,.29-1.57c-.05-8.17,1.6-11.34.88-19.82a7.17,7.17,0,0,0-3.45-5.57c-1.88-1.13-4.16-2.27-6.05-1.17s-4.15,5-5.55,6.69" style="fill:#e0e0e0"></path><path d="M422.36,222c.2-.1,7.9-3.06,8.31,5s-7.78,6.82-7.81,6.59S422.36,222,422.36,222Z" style="fill:#f5f5f5"></path><path d="M425.17,230.4s.15.09.39.18a1.37,1.37,0,0,0,1.05,0c.84-.35,1.49-1.74,1.45-3.2a4.5,4.5,0,0,0-.49-2,1.63,1.63,0,0,0-1.11-1,.7.7,0,0,0-.81.43c-.1.23,0,.39-.08.4s-.18-.12-.14-.46a.88.88,0,0,1,.3-.52,1.06,1.06,0,0,1,.76-.25,2,2,0,0,1,1.54,1.18,4.83,4.83,0,0,1,.6,2.23c0,1.62-.73,3.19-1.88,3.59a1.51,1.51,0,0,1-1.29-.15C425.2,230.59,425.14,230.41,425.17,230.4Z" style="fill:#ebebeb"></path><path d="M418.42,198.32c1.72-3.38-4.1-7.56-8.18-8.48s-9.15,1.44-13,3.08c-2.43,1-4.82,2.4-7.46,2.51a18,18,0,0,1-5.21-.88,13,13,0,0,0-5.23-.59,4.86,4.86,0,0,0-4,3c-.53,1.68.61,3.84,2.38,3.94a4,4,0,1,0-.45,7.41c-1.22-.77-2.86.81-2.6,2.23s1.65,2.35,3,2.82c3.48,1.19,7.36.4,10.73-1.06s6.46-3.55,9.8-5.09,8.92-4.27,12.48-3.34c2.62.69,4.65,3.61,6,2.81a4.89,4.89,0,0,0,2.25-3.83,14.21,14.21,0,0,0-.54-4.57" style="fill:#e0e0e0"></path><path d="M473.55,321.68,485,349a17.34,17.34,0,0,1-1,15.4h0a17.33,17.33,0,0,1-17.27,8.48l-40-3.89.74-15.82L457,348.47l-8.21-20.76Z" style="fill:#f5f5f5"></path><path d="M427.93,353.26s-6.47-1.43-9.24-2c-.9-.18-1.69-.68-2.57-.92-4.34-1.12-9.65-3.91-10.85-5.09-2.09-2.05-3.63,1.11-1.55,3.69a14.74,14.74,0,0,0,3.68,3.48l-8.85,2.32a1.86,1.86,0,0,0-1.11.81l-6.83,10.78a2.15,2.15,0,0,0,.25,2.84,1.07,1.07,0,0,0,1.45.11l-.88,1.47c-1.45,2.43,2.11,4.81,3.7,2.47l.06-.08,1.71,2.31s.81,2.26,3.43.81c2.16-1.21,9.44-6.56,9.44-6.56s20.53.46,21.55-2.56Z" style="fill:#f5f5f5"></path><path d="M395.13,373.22a19.29,19.29,0,0,0,1.72-2.57c1-1.59,2.59-3.77,4.11-6.23.81-1.16,1.69-2.32,2.44-3.22a2.2,2.2,0,0,1,1.4-.65l1.55-.23a12.54,12.54,0,0,0,3-.62,12.86,12.86,0,0,0-3.11.1l-1.56.13a2.86,2.86,0,0,0-1.81.77,35,35,0,0,0-2.58,3.3c-1.54,2.51-3,4.67-3.94,6.37A9.89,9.89,0,0,0,395.13,373.22Z" style="fill:#e0e0e0"></path><path d="M392.31,369.28c.24.17,2.55-3.82,5.86-8.35a8.53,8.53,0,0,1,2.56-2.74,21.45,21.45,0,0,1,3-1.05,12.2,12.2,0,0,1,2.11-.41c.5,0,.77,0,.79,0s-.25-.2-.79-.25a8.72,8.72,0,0,0-2.23.18,18.67,18.67,0,0,0-3.17.94,8.53,8.53,0,0,0-2.89,2.93,59,59,0,0,0-3.92,6.11A13.39,13.39,0,0,0,392.31,369.28Z" style="fill:#e0e0e0"></path><path d="M411.32,364.7a10.49,10.49,0,0,0-2.74.05l-1.37.12a4.26,4.26,0,0,0-1.65.35,4,4,0,0,0-1.41,1.2l-1.25,1.41c-3.39,3.88-6,7.13-5.85,7.26s3-2.89,6.4-6.75l1.23-1.42a3.73,3.73,0,0,1,1.18-1.09,4.42,4.42,0,0,1,1.42-.35l1.36-.2A10,10,0,0,0,411.32,364.7Z" style="fill:#e0e0e0"></path><path d="M416.45,352.05c0-.31-2.84-.45-6.28-.08s-6.2,1.1-6.14,1.33,2.78-.26,6.22-.58l4.38-.44A9.31,9.31,0,0,0,416.45,352.05Z" style="fill:#e0e0e0"></path><path d="M274.21,218.5a5.4,5.4,0,0,1,2.17-6.52,8.34,8.34,0,0,1,7.22-.56,11.76,11.76,0,0,1,7.65,10,8.53,8.53,0,0,1,4.58,3.08c3.27,4.14,2.77,10.66-.87,14.47a12.76,12.76,0,0,1-14.57,2.35,14.52,14.52,0,0,1-7.69-12.88" style="fill:#e0e0e0"></path><path d="M270.28,207.62c.08-2.58-2.29-4.58-4.69-5.54s-5.07-1.33-7.2-2.78c-1.89-1.28-3.16-3.28-4.76-4.91a15.88,15.88,0,0,0-26.76,7.17c-.94,3.67-.33,8,2.56,10.47,3.35,2.85,8.33,2.24,12.65,1.38s9.19-1.71,12.78.84c2.16,1.54,3.39,4,4.71,6.33s3,4.65,5.47,5.53,5.91-.6,6-3.25" style="fill:#e0e0e0"></path><path d="M270.1,209c-.3,2.16,1.26,4.1,2.81,5.64s3.31,3.16,3.57,5.33c.31,2.52-1.55,5-1,7.5.33,1.58,1.55,2.81,2.29,4.25a9,9,0,0,1,.43,6.63c-.65,2.18-1.7,7-3.22,8.72a35,35,0,0,1-17,10.05,65.5,65.5,0,0,1-18.76.94c-5.13-.34-11-.13-15.27-7.21-2.2-3.66-3.28-8.53-4.44-12.65-1-3.54-1.85-7.33-.78-10.86.62-2,1.87-3.87,2.48-5.93.77-2.56.51-5.31.82-8a18.31,18.31,0,0,1,26.12-14.34" style="fill:#e0e0e0"></path><path d="M224.43,217.7c.51-7.37,5.46-16.37,12.79-15.54l22.88,5.94a4.32,4.32,0,0,1,3.83,4.41l-2.83,55.25.16,0s-5.29,15.57-20.42,10.74c-3-1-4.35-4.25-4.93-7.64l-.16,0c0-.4,0-.77,0-1.15a36.07,36.07,0,0,1-.05-7.59h0c0-4.47,0-6.29,0-6.25s-9.4-1.63-11.27-13.92C223.48,235.89,223.86,225.88,224.43,217.7Z" style="fill:#f5f5f5"></path><path d="M228.09,224.85a1.58,1.58,0,0,0,1.51,1.6,1.52,1.52,0,0,0,1.64-1.41,1.58,1.58,0,0,0-1.51-1.6A1.52,1.52,0,0,0,228.09,224.85Z" style="fill:#e0e0e0"></path><path d="M226.57,222.92c.19.21,1.39-.67,3.08-.65s2.93.87,3.12.66-.11-.46-.65-.86a4.4,4.4,0,0,0-2.49-.79,4.22,4.22,0,0,0-2.46.78C226.65,222.46,226.47,222.83,226.57,222.92Z" style="fill:#e0e0e0"></path><path d="M244.63,225.14a1.57,1.57,0,0,0,1.5,1.6,1.52,1.52,0,0,0,1.64-1.41,1.58,1.58,0,0,0-1.51-1.6A1.5,1.5,0,0,0,244.63,225.14Z" style="fill:#e0e0e0"></path><path d="M243.22,223.35c.19.21,1.39-.67,3.09-.65s2.93.87,3.11.66-.1-.46-.64-.86a4.43,4.43,0,0,0-2.49-.79,4.17,4.17,0,0,0-2.46.78C243.3,222.89,243.12,223.26,243.22,223.35Z" style="fill:#e0e0e0"></path><path d="M237,235.87a11.71,11.71,0,0,0-2.74-.51c-.44-.05-.85-.14-.92-.43a2.22,2.22,0,0,1,.3-1.28c.41-1.05.85-2.14,1.3-3.29,1.81-4.68,3.12-8.53,2.93-8.6s-1.8,3.66-3.61,8.34c-.44,1.16-.86,2.26-1.25,3.31a2.53,2.53,0,0,0-.24,1.7,1.08,1.08,0,0,0,.71.63,2.64,2.64,0,0,0,.73.11A10.92,10.92,0,0,0,237,235.87Z" style="fill:#e0e0e0"></path><path d="M235.68,255.92a31.19,31.19,0,0,0,16.47-4.28s-4.05,8.41-16.33,7.18Z" style="fill:#ebebeb"></path><path d="M237.67,240a3.07,3.07,0,0,1,2.75-1.11,2.8,2.8,0,0,1,1.92,1,1.77,1.77,0,0,1,.12,2,2.07,2.07,0,0,1-2.23.55,6.43,6.43,0,0,1-2.16-1.31,2.07,2.07,0,0,1-.48-.5.57.57,0,0,1,0-.63" style="fill:#ebebeb"></path><path d="M242,237.08c-.27,0-.29,1.82-1.87,3.12s-3.54,1.07-3.56,1.33.44.36,1.26.39a4.6,4.6,0,0,0,3-1,3.94,3.94,0,0,0,1.45-2.61C242.29,237.53,242.09,237.07,242,237.08Z" style="fill:#e0e0e0"></path><path d="M242.48,220.38c.16.46,1.85.25,3.84.51s3.59.8,3.86.39c.12-.2-.16-.63-.81-1.08a6.74,6.74,0,0,0-5.86-.69C242.78,219.8,242.41,220.16,242.48,220.38Z" style="fill:#e0e0e0"></path><path d="M227.22,218c.3.39,1.47,0,2.87,0s2.59.27,2.87-.13c.12-.19-.07-.58-.58-.95a4,4,0,0,0-2.33-.64,3.92,3.92,0,0,0-2.29.75C227.26,217.44,227.09,217.83,227.22,218Z" style="fill:#e0e0e0"></path><path d="M268.49,248.54a10.91,10.91,0,0,1-12.92-12.12c.4-3,2-6.07,1-8.93-1.36-3.78-6.65-5-8-8.74-.81-2.19-.06-4.75-1-6.9s-3-3.19-5-3.94-4.27-1.29-6-2.64-2.8-3.91-1.67-5.79a116.31,116.31,0,0,1,26.8,6.64c2,.76,4.1,1.67,5.28,3.45s1.17,4.33,1.06,6.59q-.86,16.53-1.7,33.07" style="fill:#e0e0e0"></path><path d="M267.7,252.76l.19-.13.55-.41c.48-.37,1.18-.92,2-1.68a21.86,21.86,0,0,0,2.91-3,11.31,11.31,0,0,0,2.31-5.05,7.66,7.66,0,0,0-1.55-6.46,24.09,24.09,0,0,0-2.85-2.46,6.69,6.69,0,0,1-2.22-3.05c-.89-2.51-.47-5.4-.81-8.37a16.74,16.74,0,0,0-3.44-8.47,11.62,11.62,0,0,0-3.63-3,22.69,22.69,0,0,0-4.29-1.47,9.85,9.85,0,0,1-3.76-1.87,14.75,14.75,0,0,1-2.73-3c-1.53-2.2-2.66-4.54-4.12-6.49a13.84,13.84,0,0,0-2.41-2.58,9.09,9.09,0,0,0-2.86-1.58,6.11,6.11,0,0,0-5.45.52,5,5,0,0,0-2,3.67,3.69,3.69,0,0,0,.73,2.53,2.12,2.12,0,0,0,.5.48c.12.1.19.14.19.13a1.11,1.11,0,0,0-.16-.17,3,3,0,0,1-.44-.5,3.62,3.62,0,0,1-.61-2.46,4.83,4.83,0,0,1,1.92-3.43,5.82,5.82,0,0,1,5.16-.41,9,9,0,0,1,2.72,1.54,13.66,13.66,0,0,1,2.31,2.52c1.42,1.92,2.52,4.26,4.08,6.51a15.37,15.37,0,0,0,2.8,3.15,10.47,10.47,0,0,0,3.94,2,22.53,22.53,0,0,1,4.19,1.44,10.91,10.91,0,0,1,3.46,2.86,16.2,16.2,0,0,1,3.33,8.2c.35,2.86-.08,5.8.88,8.47a7.07,7.07,0,0,0,2.38,3.25,25.22,25.22,0,0,1,2.82,2.38,7.33,7.33,0,0,1,1.51,6.11,11.13,11.13,0,0,1-2.19,4.93,22.17,22.17,0,0,1-2.8,3c-.83.77-1.51,1.35-2,1.74A4.75,4.75,0,0,0,267.7,252.76Z" style="fill:#f5f5f5"></path><path d="M297.67,230a1.26,1.26,0,0,1,.3.17,4.61,4.61,0,0,1,.72.68,5.75,5.75,0,0,1,1.26,3.38,9.29,9.29,0,0,1-1.52,5.13,12,12,0,0,1-4.76,4.5,9.58,9.58,0,0,1-6.49.82,8.19,8.19,0,0,1-2.66-1.13,8.08,8.08,0,0,1-1.84-1.73,7.3,7.3,0,0,1-1.44-3.31,5.55,5.55,0,0,1-.06-1c0-.22,0-.34,0-.34s0,.48.18,1.3a7.39,7.39,0,0,0,1.5,3.16,7.94,7.94,0,0,0,1.8,1.63,8.22,8.22,0,0,0,2.57,1.05,9.32,9.32,0,0,0,6.21-.82,11.78,11.78,0,0,0,4.63-4.33,9.19,9.19,0,0,0,1.55-4.93,5.69,5.69,0,0,0-1.09-3.29A9.15,9.15,0,0,0,297.67,230Z" style="fill:#e0e0e0"></path><polygon points="229.42 269.43 236.63 263.96 263.79 262.23 264.88 265.87 256.05 321 261.94 367.22 224.05 367.22 229.42 269.43" style="fill:#e0e0e0"></polygon><path d="M235.29,270.54l-.84-7.89a2.5,2.5,0,0,1,2.26-2.75l25-2.26a1.17,1.17,0,0,1,1.28,1.14l.29,9.38-7.24,12.29-7.45,2.37h-9.1l-5.23-5.59Z" style="fill:#e0e0e0"></path><path d="M259.59,265.15s-.35,0-1-.1a18.72,18.72,0,0,0-2.72-.05,27.32,27.32,0,0,0-4,.58c-1.5.31-3.12.75-4.84,1.17a31.6,31.6,0,0,1-4.92.88,12.86,12.86,0,0,1-4.09-.28,8.54,8.54,0,0,1-2.54-1.06,4.71,4.71,0,0,1-.61-.44c-.13-.11-.2-.17-.19-.18s.3.2.86.52a9.48,9.48,0,0,0,2.53.95,13.15,13.15,0,0,0,4,.2,34.23,34.23,0,0,0,4.88-.89c1.71-.42,3.34-.85,4.85-1.15a24.55,24.55,0,0,1,4.05-.52,14.78,14.78,0,0,1,2.75.15c.32.05.57.1.73.14S259.6,265.14,259.59,265.15Z" style="fill:#ebebeb"></path><path d="M240.66,259.65a2.25,2.25,0,0,0-.85.81,6.1,6.1,0,0,0-.34,2.88c.06,2.33.45,4.2.36,4.22a4.22,4.22,0,0,1-.34-1.21,18.23,18.23,0,0,1-.33-3,13.05,13.05,0,0,1,0-1.67,2.87,2.87,0,0,1,.43-1.33,1.73,1.73,0,0,1,.71-.63C240.53,259.63,240.66,259.63,240.66,259.65Z" style="fill:#ebebeb"></path><path d="M247.27,266.5a36.3,36.3,0,0,0-.18-3.82,33.43,33.43,0,0,0-.89-3.71,3,3,0,0,1,.51,1,12.09,12.09,0,0,1,.69,2.66,11.89,11.89,0,0,1,.08,2.74A3.09,3.09,0,0,1,247.27,266.5Z" style="fill:#ebebeb"></path><path d="M255.32,258.31a2.32,2.32,0,0,1,.48.93,6.4,6.4,0,0,1-.33,4.93,2.4,2.4,0,0,1-.6.86,10.46,10.46,0,0,0,.94-3.32A10.07,10.07,0,0,0,255.32,258.31Z" style="fill:#ebebeb"></path><path d="M204.37,340.31s3.37-43.21,5.13-51.32c2.24-10.31,10.76-16,10.76-16l3.49,79.93L216.94,363l-8.23,3.16a8.55,8.55,0,0,1-5.9.09l-7.92-2.76-.67-15.08,6.69-1.94Z" style="fill:#e0e0e0"></path><polyline points="228.02 367.4 228.94 307.54 230.64 268.96 234.72 265.41 220.26 272.97 216.85 284.18 213.81 316.67 219.53 354.75 215.59 367.29" style="fill:#e0e0e0"></polyline><path d="M216.38,338.63a2.18,2.18,0,0,1-.14-.47c-.09-.33-.2-.79-.34-1.36s-.33-1.32-.49-2.17-.39-1.81-.56-2.89-.39-2.25-.55-3.53-.33-2.63-.48-4.07c-.26-2.87-.44-6-.44-9.38s.2-6.5.47-9.38c.16-1.43.3-2.8.5-4.06s.37-2.46.56-3.53.4-2,.57-2.89.35-1.58.5-2.17.26-1,.34-1.36.13-.47.14-.47a1.63,1.63,0,0,1-.08.49c-.07.34-.16.8-.28,1.37s-.29,1.32-.45,2.18-.36,1.81-.52,2.89-.37,2.25-.53,3.52-.31,2.63-.46,4.06c-.26,2.87-.43,6-.45,9.35s.17,6.49.41,9.36c.15,1.43.27,2.79.45,4.06s.34,2.45.52,3.52.35,2.05.51,2.9.3,1.58.43,2.18l.29,1.37A3.59,3.59,0,0,1,216.38,338.63Z" style="fill:#ebebeb"></path><path d="M286.74,272.06a19.85,19.85,0,0,1,12.18,14.15c4.73,20.84,12.82,48.55,12.94,57.49.16,11.4-4.82,19.19-11.32,20.63-3.72.82-29,.41-42.75.12a10.22,10.22,0,0,1-9.93-9h0a10.23,10.23,0,0,1,8.66-11.4l27.83-4.1-5.17-28.88,5.12-40Z" style="fill:#e0e0e0"></path><path d="M258.87,297.22l5.23-27.28a10.8,10.8,0,0,0-1.09-7.59l.06-1.42,10.79,5.92,10.44,4.27.25,31.72-6.29,64.3-22.12.08,0-28.7A166.77,166.77,0,0,1,258.87,297.22Z" style="fill:#e0e0e0"></path><path d="M278.88,308.2a1.29,1.29,0,0,1,.08.32c.05.24.11.55.18.92.16.85.37,2,.63,3.41.51,2.93,1.2,6.89,2,11.28s1.4,8.36,1.88,11.28c.22,1.42.41,2.58.54,3.43.05.38.09.69.13.93a1,1,0,0,1,0,.33,1,1,0,0,1-.08-.31c-.05-.25-.11-.56-.19-.93-.16-.85-.37-2-.63-3.41-.53-2.88-1.22-6.87-2-11.27s-1.41-8.4-1.87-11.29c-.22-1.41-.39-2.57-.53-3.43l-.12-.93A1.64,1.64,0,0,1,278.88,308.2Z" style="fill:#ebebeb"></path><path d="M289.32,276.57a6.5,6.5,0,0,1-.85.31,19.77,19.77,0,0,0-2.26,1,17.66,17.66,0,0,0-6.13,5.22,13.58,13.58,0,0,0-1.2,2,12,12,0,0,0-.73,2,21.15,21.15,0,0,0-.61,3.6c-.08,1-.1,1.89-.11,2.47a6.41,6.41,0,0,1,0,.91,4,4,0,0,1-.1-.91,23,23,0,0,1,0-2.49,19.51,19.51,0,0,1,.55-3.65,12.93,12.93,0,0,1,.73-2.08,12.75,12.75,0,0,1,1.23-2,16.87,16.87,0,0,1,6.28-5.24,15.41,15.41,0,0,1,2.32-.89A4.18,4.18,0,0,1,289.32,276.57Z" style="fill:#ebebeb"></path><path d="M255.89,344.21a1.89,1.89,0,0,0,.39,0l1.11-.14,4.06-.57,13.4-2,9.74-1.51h0a7,7,0,0,1,3.38,1.5,7.35,7.35,0,0,1,1.84,2.2,8.42,8.42,0,0,1,.83,2.39s0-.06,0-.17,0-.28-.07-.5a6.34,6.34,0,0,0-.62-1.79,7.2,7.2,0,0,0-1.85-2.3,7,7,0,0,0-3.48-1.59h0l-9.75,1.46-13.38,2.08-4.05.66-1.1.2Z" style="fill:#ebebeb"></path><path d="M216.24,338.16a1.18,1.18,0,0,0,0,.31l.15.84c.15.74.34,1.8.57,3.12a64.33,64.33,0,0,1,.95,10.39,48.58,48.58,0,0,1-.35,5.73,46.27,46.27,0,0,1-.84,4.61c-.14.65-.32,1.23-.46,1.74s-.26,1-.38,1.31-.18.6-.24.83a1.62,1.62,0,0,0-.07.29s.06-.09.13-.27l.3-.81c.13-.35.28-.79.43-1.3s.35-1.09.5-1.74a41.58,41.58,0,0,0,.92-4.63,46.62,46.62,0,0,0,.37-5.76,57.24,57.24,0,0,0-1.05-10.43c-.25-1.31-.48-2.37-.66-3.1-.08-.34-.15-.61-.21-.84A1.32,1.32,0,0,0,216.24,338.16Z" style="fill:#ebebeb"></path><path d="M174,361.55c-.15,0-.95.47-.31,1.72s5.32,5.45,6.76,4.05-.68-3.18-.68-3.18Z" style="fill:#e0e0e0"></path><path d="M180,364.2a52.89,52.89,0,0,1,8,1.74,8.4,8.4,0,0,0,7.35-.9,21.16,21.16,0,0,0,3.19-2.48l7.36,0a8.83,8.83,0,0,0,1.63-9.09,10.05,10.05,0,0,0-1.63-2.91,7.79,7.79,0,0,0-4.59-2.22l-8.79,1.71s-13.53-1.25-16-.17c0,0-3.07,1.74-4,2.47-.36.28-1.5,3.7.66,5.54,0,0-1.95,1.49-.94,2.88l.49.61s-1.33,1.65-.68,2.39,6.37,4.26,8.46,3.49.42-2.72-.49-3.09" style="fill:#f5f5f5"></path><path d="M174.64,355a5.2,5.2,0,0,1,.72.27c.45.19,1.11.45,1.93.73l1.37.43c.49.14,1,.26,1.58.45a3.49,3.49,0,0,1,1.57,1,2,2,0,0,1,.38,2,1.48,1.48,0,0,1-.73.75,2.58,2.58,0,0,1-1,.25,7.73,7.73,0,0,1-1.83-.14,16.08,16.08,0,0,1-3-.84c-.82-.31-1.47-.6-1.91-.8a5.37,5.37,0,0,1-.69-.34,4.3,4.3,0,0,1,.72.25c.46.18,1.12.44,1.94.73a17.54,17.54,0,0,0,2.95.79,8.69,8.69,0,0,0,1.78.12,2.6,2.6,0,0,0,.88-.23,1.29,1.29,0,0,0,.62-.64,1.73,1.73,0,0,0-.34-1.7,3.3,3.3,0,0,0-1.46-.93c-.54-.19-1.08-.32-1.57-.47s-.95-.31-1.36-.46c-.83-.31-1.48-.59-1.92-.8A3.6,3.6,0,0,1,174.64,355Z" style="fill:#e0e0e0"></path><path d="M175.25,350.81a4.88,4.88,0,0,1,.71.27c.45.19,1.1.45,1.92.75s1.81.61,2.92.9a4,4,0,0,1,1.7.73,1.43,1.43,0,0,1,.48.89,1.83,1.83,0,0,1-.17,1,2.5,2.5,0,0,1-1.54,1.25,4,4,0,0,1-1.84.11,17.42,17.42,0,0,1-2.94-.92l-1.94-.72a5,5,0,0,1-.7-.3,5.11,5.11,0,0,1,.73.21l2,.65a19.27,19.27,0,0,0,2.91.86,3.83,3.83,0,0,0,1.74-.11,2.24,2.24,0,0,0,1.39-1.13,1.37,1.37,0,0,0-.25-1.65,4,4,0,0,0-1.6-.69c-1.11-.3-2.1-.64-2.92-.95s-1.46-.61-1.9-.82A4,4,0,0,1,175.25,350.81Z" style="fill:#e0e0e0"></path><path d="M178,352.06a6.67,6.67,0,0,1-.24-1.16,7,7,0,0,1-.27-1.16,2.92,2.92,0,0,1,.51,2.32Z" style="fill:#e0e0e0"></path><path d="M198.37,352.66l-5.11-2.09s-14.14-7-14.39-6.61-1,.3-.89,2.05,8.38,5.43,8.63,6-.25,3.65,2.78,5.89a10.64,10.64,0,0,0,5.25,2.35" style="fill:#f5f5f5"></path><path d="M194.64,360.29h-.13l-.35,0a7.58,7.58,0,0,1-1.33-.35,12.62,12.62,0,0,1-2-.91,12,12,0,0,1-2.33-1.69,6.2,6.2,0,0,1-1.69-3.05,13.44,13.44,0,0,1-.26-1.92,1.32,1.32,0,0,0,0-.23.76.76,0,0,0-.13-.14c-.13-.1-.27-.19-.41-.28l-.9-.52c-1.22-.68-2.53-1.38-3.84-2.17-.66-.4-1.32-.82-2-1.29a7.66,7.66,0,0,1-.91-.8,2.69,2.69,0,0,1-.39-.5,1.6,1.6,0,0,1-.11-.33c0-.11,0-.21,0-.31a2.25,2.25,0,0,1,.24-1.24,1.43,1.43,0,0,1,.47-.45,1.16,1.16,0,0,0,.2-.16l.05-.05c.07,0,.08,0,.1,0h.1l.16,0a23.44,23.44,0,0,1,2.17.89c1.4.62,2.74,1.25,4,1.85,2.54,1.21,4.81,2.33,6.72,3.27.48.23.93.47,1.36.67l1.25.52,2,.84,1.25.54.33.14.11.06-.12,0-.33-.13-1.28-.5-2-.8-1.25-.5c-.45-.2-.89-.43-1.37-.66l-6.75-3.22c-1.27-.59-2.61-1.22-4-1.84-.7-.3-1.42-.63-2.15-.87l-.13,0h-.05s0,0,0,0,0,0,0-.06v0c.16.12,0,0,.07.07h0a1.27,1.27,0,0,1-.26.22,1.18,1.18,0,0,0-.39.38,2,2,0,0,0-.21,1.1,1,1,0,0,0,.11.53,2.48,2.48,0,0,0,.34.46,8.09,8.09,0,0,0,.88.77c.63.46,1.29.88,1.94,1.28,1.31.79,2.6,1.49,3.83,2.18.31.17.61.35.9.53a3,3,0,0,1,.43.3.51.51,0,0,1,.2.23,1.31,1.31,0,0,1,.06.27,14.23,14.23,0,0,0,.24,1.91,6.14,6.14,0,0,0,1.62,3,11.92,11.92,0,0,0,2.28,1.69,12.88,12.88,0,0,0,1.94.94,9.69,9.69,0,0,0,1.31.39l.35.07C194.6,360.28,194.64,360.28,194.64,360.29Z" style="fill:#e0e0e0"></path><path d="M178.87,360.63a2,2,0,0,1,.54.17,5.29,5.29,0,0,1,1.33.81,4.66,4.66,0,0,1,.77.77,1.6,1.6,0,0,1,.38,1.21,1.32,1.32,0,0,1-1,1,2.61,2.61,0,0,1-1.49-.08,27,27,0,0,1-4.7-2c-.57-.32-1-.61-1.32-.82a2.21,2.21,0,0,1-.44-.35,3.74,3.74,0,0,1,.49.27c.32.19.77.45,1.35.75a34.44,34.44,0,0,0,4.68,1.92,2.37,2.37,0,0,0,1.36.08,1.1,1.1,0,0,0,.83-.82,1.44,1.44,0,0,0-.34-1.05,4.34,4.34,0,0,0-.71-.76A8.28,8.28,0,0,0,178.87,360.63Z" style="fill:#e0e0e0"></path><path d="M259.9,346.56l-9.08.19s-13.61-4.92-16.41-4.45c-2.52.42-11.75,6.55-13.56,7.77a1.19,1.19,0,0,0-.44.55h0a2,2,0,0,0,1.1,2.52l.19.08-.08.27a3.39,3.39,0,0,0-.14,1.11,1.33,1.33,0,0,0,2.48.57l-.35.62a1.58,1.58,0,0,0-.2.82l0,.57a1.49,1.49,0,0,0,1,1.35h0a1.49,1.49,0,0,0,1.58-.41c1.17-1.29,3.7-3.87,5.41-4.16a41.78,41.78,0,0,1,5.59-.28,1.91,1.91,0,0,1,1.76,1.21h0c-1,.08-8.09,3.77-10.59,5.09a2.64,2.64,0,0,0-1.46,2c-.09.78.3,1.61,1.85,1.24A67.48,67.48,0,0,0,238,359.7s3.08-.88,5.08.53c2.82,2,4.11,2.72,6.52,1.92a21,21,0,0,0,4.2-1.95L262,361S267,352.79,259.9,346.56Z" style="fill:#f5f5f5"></path><path d="M238.88,349.05a24.59,24.59,0,0,0-2.56-.36,13.5,13.5,0,0,0-6.06,1,13.33,13.33,0,0,0-4.94,3.67c-1,1.22-1.47,2.12-1.52,2.09a3.32,3.32,0,0,1,.31-.63,10,10,0,0,1,1.07-1.58,12.77,12.77,0,0,1,11.16-4.76,10.87,10.87,0,0,1,1.88.32A2.5,2.5,0,0,1,238.88,349.05Z" style="fill:#e0e0e0"></path><path d="M237.44,345.74a11.44,11.44,0,0,0-2.66-.47,11.6,11.6,0,0,0-6.2,1.76,25,25,0,0,0-5,4.22l-1.36,1.45a3.57,3.57,0,0,1-.53.52,4.58,4.58,0,0,1,.45-.58c.3-.37.74-.89,1.31-1.51a22.42,22.42,0,0,1,5-4.32,11.36,11.36,0,0,1,6.33-1.72,7.82,7.82,0,0,1,2,.36c.23.07.39.16.51.2Z" style="fill:#e0e0e0"></path><path d="M215.6,367.33s-41.15,18.15-42.52,28.49.36,64.71.36,64.71h31.3l3.31-48,3.19,48H242v-46.7s32-5.25,39.18-9.8-2.92-36.89-2.92-36.89Z" style="fill:#e0e0e0"></path><path d="M67.63,242.34A9.06,9.06,0,0,0,60,250.48c-.16,2.59.79,5.35-.31,7.7s-3.64,3.3-5.74,4.68c-2.82,1.85-5.13,5.08-4.55,8.41a38.42,38.42,0,0,0,1.48,4.22c.82,2.73.3,5.65.33,8.5a16,16,0,0,0,2.46,8.74,10.65,10.65,0,0,0,7.51,4.82,40.58,40.58,0,0,1,4.69.26,27.18,27.18,0,0,1,3.82,1.53c5,2,11.21.25,14.84-3.8a16.89,16.89,0,0,0,3.4-15.28c-1-3.89-3.21-7.33-4.89-11s-.26-9.95-1-13.36c-6.35-2.59-9.27-7.51-12.44-13.58" style="fill:#e0e0e0"></path><path d="M116.63,207.62c.09-2.58-2.29-4.58-4.69-5.54s-5.07-1.33-7.2-2.78c-1.89-1.28-3.16-3.28-4.76-4.91a15.89,15.89,0,0,0-26.76,7.17c-.94,3.67-.33,8,2.56,10.47,3.35,2.85,8.34,2.24,12.65,1.38s9.19-1.71,12.78.84c2.16,1.54,3.39,4,4.71,6.33s3,4.65,5.47,5.53,5.92-.6,6-3.25" style="fill:#e0e0e0"></path><path d="M116.45,209c-.29,2.16,1.26,4.1,2.81,5.64s3.31,3.16,3.57,5.33c.31,2.52-1.55,5-1,7.5.33,1.58,1.56,2.81,2.29,4.25a8.94,8.94,0,0,1,.43,6.63c-.65,2.18-1.69,7-3.22,8.72a35,35,0,0,1-17,10.05,65.45,65.45,0,0,1-18.75.94c-5.13-.34-11-.13-15.28-7.21-2.2-3.66-3.28-8.53-4.43-12.65-1-3.54-1.86-7.33-.79-10.86.62-2,1.87-3.87,2.48-5.93.77-2.56.51-5.31.82-8a18.32,18.32,0,0,1,26.13-14.34" style="fill:#e0e0e0"></path><path d="M70.78,217.7c.52-7.37,5.46-16.37,12.79-15.54l22.88,5.94a4.32,4.32,0,0,1,3.83,4.41l-2.83,55.25.16,0s-5.29,15.57-20.41,10.74c-3-1-4.36-4.25-4.94-7.64l-.15,0c0-.4,0-.77,0-1.15a35.69,35.69,0,0,1-.06-7.59h0c0-4.47,0-6.29,0-6.25s-9.4-1.63-11.27-13.92C69.83,235.89,70.21,225.88,70.78,217.7Z" style="fill:#f5f5f5"></path><path d="M74.87,225.14a1.57,1.57,0,0,0,1.51,1.6A1.51,1.51,0,0,0,78,225.33a1.58,1.58,0,0,0-1.51-1.6A1.5,1.5,0,0,0,74.87,225.14Z" style="fill:#e0e0e0"></path><path d="M72.92,222.92c.19.21,1.39-.67,3.08-.65s2.93.87,3.12.66-.11-.46-.64-.86a4.43,4.43,0,0,0-2.5-.79,4.22,4.22,0,0,0-2.46.78C73,222.46,72.82,222.83,72.92,222.92Z" style="fill:#e0e0e0"></path><path d="M91.61,225.14a1.58,1.58,0,0,0,1.51,1.6,1.5,1.5,0,0,0,1.63-1.41,1.57,1.57,0,0,0-1.5-1.6A1.52,1.52,0,0,0,91.61,225.14Z" style="fill:#e0e0e0"></path><path d="M89.57,223.35c.19.21,1.39-.67,3.09-.65s2.93.87,3.11.66-.1-.46-.64-.86a4.43,4.43,0,0,0-2.49-.79,4.17,4.17,0,0,0-2.46.78C89.66,222.89,89.48,223.26,89.57,223.35Z" style="fill:#e0e0e0"></path><path d="M83.34,235.87a12,12,0,0,0-2.75-.51c-.44-.05-.84-.14-.92-.43a2.22,2.22,0,0,1,.3-1.28c.42-1.05.85-2.14,1.3-3.29,1.81-4.68,3.13-8.53,2.94-8.6s-1.81,3.66-3.62,8.34l-1.25,3.31a2.53,2.53,0,0,0-.24,1.7,1.08,1.08,0,0,0,.71.63,2.65,2.65,0,0,0,.74.11A11,11,0,0,0,83.34,235.87Z" style="fill:#e0e0e0"></path><path d="M82,255.92a31.19,31.19,0,0,0,16.47-4.28s-4,8.41-16.33,7.18Z" style="fill:#ebebeb"></path><path d="M84,240a3.07,3.07,0,0,1,2.75-1.11,2.8,2.8,0,0,1,1.92,1,1.77,1.77,0,0,1,.12,2,2.07,2.07,0,0,1-2.23.55,6.29,6.29,0,0,1-2.15-1.31,1.94,1.94,0,0,1-.49-.5.57.57,0,0,1,0-.63" style="fill:#ebebeb"></path><path d="M88.31,237.08c-.27,0-.29,1.82-1.87,3.12s-3.54,1.07-3.56,1.33.44.36,1.27.39a4.59,4.59,0,0,0,3-1,4,4,0,0,0,1.46-2.61C88.64,237.53,88.44,237.07,88.31,237.08Z" style="fill:#e0e0e0"></path><path d="M88.83,220.38c.16.46,1.86.25,3.84.51s3.59.8,3.86.39c.12-.2-.16-.63-.8-1.08a6.77,6.77,0,0,0-5.87-.69C89.13,219.8,88.76,220.16,88.83,220.38Z" style="fill:#e0e0e0"></path><path d="M73.57,218c.3.39,1.47,0,2.87,0s2.59.27,2.87-.13c.12-.19-.06-.58-.58-.95a4.19,4.19,0,0,0-4.62.11C73.61,217.44,73.44,217.83,73.57,218Z" style="fill:#e0e0e0"></path><path d="M114.84,248.54a10.91,10.91,0,0,1-12.92-12.12c.4-3,2-6.07,1-8.93-1.37-3.78-6.65-5-8-8.74-.81-2.19-.06-4.75-1-6.9s-3-3.19-5-3.94-4.27-1.29-6-2.64-2.8-3.91-1.67-5.79a116.18,116.18,0,0,1,26.8,6.64c2,.76,4.1,1.67,5.28,3.45s1.17,4.33,1.06,6.59q-.86,16.53-1.7,33.07" style="fill:#e0e0e0"></path><polygon points="75.77 269.43 82.98 263.96 110.14 262.23 111.23 265.87 102.4 321 108.29 367.22 70.4 367.22 75.77 269.43" style="fill:#ebebeb"></polygon><path d="M81.64,270.54l-.84-7.89a2.51,2.51,0,0,1,2.26-2.75l25-2.26a1.18,1.18,0,0,1,1.29,1.14l.28,9.38-7.24,12.29L95,282.82h-9.1l-5.23-5.59Z" style="fill:#ebebeb"></path><path d="M106,265.15a9.72,9.72,0,0,1-1-.1,18.91,18.91,0,0,0-2.73-.05,27.32,27.32,0,0,0-4,.58c-1.5.31-3.12.75-4.84,1.17a31.6,31.6,0,0,1-4.92.88,12.77,12.77,0,0,1-4.08-.28,8.62,8.62,0,0,1-2.55-1.06,4.71,4.71,0,0,1-.61-.44,1.07,1.07,0,0,1-.19-.18s.3.2.86.52a9.44,9.44,0,0,0,2.54.95,13.07,13.07,0,0,0,4,.2,34.23,34.23,0,0,0,4.88-.89c1.71-.42,3.34-.85,4.85-1.15a24.82,24.82,0,0,1,4-.52,14.72,14.72,0,0,1,2.75.15c.32.05.57.1.74.14A.9.9,0,0,1,106,265.15Z" style="fill:#ebebeb"></path><path d="M87,259.65a2.16,2.16,0,0,0-.86.81,6.23,6.23,0,0,0-.34,2.88c.06,2.33.45,4.2.36,4.22a4.22,4.22,0,0,1-.34-1.21,18.23,18.23,0,0,1-.33-3,13.05,13.05,0,0,1,0-1.67,2.87,2.87,0,0,1,.43-1.33,1.73,1.73,0,0,1,.71-.63C86.88,259.63,87,259.63,87,259.65Z" style="fill:#ebebeb"></path><path d="M93.62,266.5a33.33,33.33,0,0,0-.18-3.82,38.11,38.11,0,0,0-.88-3.71,3.49,3.49,0,0,1,.51,1,12.73,12.73,0,0,1,.68,2.66,11.89,11.89,0,0,1,.08,2.74A3.09,3.09,0,0,1,93.62,266.5Z" style="fill:#ebebeb"></path><path d="M101.67,258.31a2.32,2.32,0,0,1,.48.93,6.4,6.4,0,0,1-.33,4.93,2.47,2.47,0,0,1-.59.86,10.77,10.77,0,0,0,.94-3.32A10.21,10.21,0,0,0,101.67,258.31Z" style="fill:#ebebeb"></path><path d="M50.26,374l6.15-27.89s-2.32-49-.56-57.08c2.24-10.31,10.76-16,10.76-16L70.1,352.9l-3.46,18.66" style="fill:#e0e0e0"></path><polyline points="74.37 367.4 75.3 307.54 76.99 268.96 81.07 265.41 66.61 272.97 63.2 284.18 60.16 316.67 65.89 354.75 61.94 367.29" style="fill:#e0e0e0"></polyline><path d="M62.73,338.63a2.18,2.18,0,0,1-.14-.47c-.09-.33-.2-.79-.34-1.36s-.32-1.32-.49-2.17-.39-1.81-.56-2.89-.39-2.25-.55-3.53-.33-2.63-.48-4.07c-.26-2.87-.44-6-.44-9.38s.2-6.5.47-9.38c.16-1.43.3-2.8.5-4.06s.37-2.46.56-3.53.4-2,.57-2.89.35-1.58.5-2.17.26-1,.35-1.36a2.87,2.87,0,0,1,.14-.47,3.31,3.31,0,0,1-.08.49c-.08.34-.17.8-.29,1.37s-.29,1.32-.45,2.18-.36,1.81-.52,2.89-.37,2.25-.53,3.52-.31,2.63-.46,4.06c-.25,2.87-.43,6-.45,9.35s.17,6.49.41,9.36c.15,1.43.27,2.79.45,4.06s.34,2.45.52,3.52.36,2.05.51,2.9.3,1.58.44,2.18.21,1,.28,1.37A3.59,3.59,0,0,1,62.73,338.63Z" style="fill:#ebebeb"></path><path d="M100.27,357.69,130.7,340l-5.16-28.88,5.11-40,8.33,3.22a8.06,8.06,0,0,1,5,5.91c4.34,21.13,14.09,53.63,14.23,63.45.17,11.4-4.82,19.19-11.32,20.63-3.71.82-26.32,5.77-41.55,7.19" style="fill:#e0e0e0"></path><path d="M105.22,297.22l5.23-27.28a10.85,10.85,0,0,0-1.08-7.59l.06-1.42,10.78,5.92,10.44,4.27.25,31.72-6.29,64.3-22.12.08.05-28.7A166.76,166.76,0,0,1,105.22,297.22Z" style="fill:#e0e0e0"></path><path d="M125.23,308.2a1.29,1.29,0,0,1,.08.32c0,.24.11.55.19.92.15.85.36,2,.62,3.41.51,2.93,1.2,6.89,2,11.28s1.4,8.36,1.89,11.28l.53,3.43c.05.38.1.69.13.93a1.38,1.38,0,0,1,0,.33s0-.1-.09-.31-.11-.56-.19-.93c-.16-.85-.37-2-.63-3.41-.52-2.88-1.22-6.87-2-11.27s-1.42-8.4-1.88-11.29c-.21-1.41-.39-2.57-.52-3.43,0-.38-.1-.69-.13-.93A1.64,1.64,0,0,1,125.23,308.2Z" style="fill:#ebebeb"></path><path d="M135.68,276.57a8.15,8.15,0,0,1-.86.31,19.77,19.77,0,0,0-2.26,1,17.66,17.66,0,0,0-6.13,5.22,13.58,13.58,0,0,0-1.2,2,12,12,0,0,0-.73,2,20.11,20.11,0,0,0-.6,3.6c-.09,1-.11,1.89-.12,2.47a6.41,6.41,0,0,1,0,.91,4,4,0,0,1-.1-.91,21.07,21.07,0,0,1,0-2.49,18,18,0,0,1,.55-3.65,12,12,0,0,1,.72-2.08,12.75,12.75,0,0,1,1.23-2,16.94,16.94,0,0,1,6.28-5.24,15.41,15.41,0,0,1,2.32-.89A4.05,4.05,0,0,1,135.68,276.57Z" style="fill:#ebebeb"></path><path d="M62.59,338.16a1.18,1.18,0,0,0,0,.31l.15.84c.15.74.34,1.8.57,3.12a64.33,64.33,0,0,1,1,10.39,46.53,46.53,0,0,1-.35,5.73,46.27,46.27,0,0,1-.84,4.61c-.14.65-.32,1.23-.45,1.74s-.27,1-.38,1.31L62,367a1.62,1.62,0,0,0-.07.29s.06-.09.13-.27l.3-.81c.13-.35.28-.79.43-1.3s.35-1.09.5-1.74a41.58,41.58,0,0,0,.92-4.63,44.75,44.75,0,0,0,.37-5.76,58.25,58.25,0,0,0-1-10.43c-.26-1.31-.49-2.37-.67-3.1-.08-.34-.15-.61-.21-.84A1.32,1.32,0,0,0,62.59,338.16Z" style="fill:#ebebeb"></path><path d="M61.64,367.33s-33.4,14.39-34.76,24.73,5.62,70,5.62,70l69.74-2.81-4.77-46.72S120,408.58,127.21,404s-2.91-36.89-2.91-36.89Z" style="fill:#e0e0e0"></path><path d="M101.65,357.69l-8.83,2.12s-14.35-1.9-17-.84c-2.37.95-10.08,8.92-11.59,10.49a1.17,1.17,0,0,0-.31.64h0a2,2,0,0,0,1.62,2.22l.2,0,0,.28a3.24,3.24,0,0,0,.1,1.11,1.33,1.33,0,0,0,2.54,0l-.21.68a1.45,1.45,0,0,0,0,.85l.15.54a1.5,1.5,0,0,0,1.3,1.1h0a1.5,1.5,0,0,0,1.46-.74c.87-1.51,2.79-4.57,4.4-5.22a40.23,40.23,0,0,1,5.4-1.46,1.89,1.89,0,0,1,2,.8h0c-1,.29-7.1,5.41-9.27,7.23a2.7,2.7,0,0,0-1,2.28c.08.79.64,1.5,2.08.82A68.55,68.55,0,0,0,83,375.22s2.83-1.52,5.09-.57c3.17,1.34,4.58,1.77,6.77.48a20.49,20.49,0,0,0,3.69-2.81l8.22-1S109.94,362.26,101.65,357.69Z" style="fill:#f5f5f5"></path><path d="M81.65,364.61c0,.05-1,0-2.58.2a13.18,13.18,0,0,0-9.74,6.94c-.75,1.41-1,2.38-1,2.36a4.27,4.27,0,0,1,.17-.68,11.44,11.44,0,0,1,.7-1.77,12.81,12.81,0,0,1,9.89-7,11.47,11.47,0,0,1,1.9-.09A2.86,2.86,0,0,1,81.65,364.61Z" style="fill:#e0e0e0"></path><path d="M79.53,361.69a10.56,10.56,0,0,0-2.7.11,11.64,11.64,0,0,0-5.67,3,24.59,24.59,0,0,0-4,5.19c-.41.69-.76,1.26-1,1.71a6,6,0,0,1-.4.62,3.07,3.07,0,0,1,.31-.67c.22-.42.54-1,1-1.75a22.66,22.66,0,0,1,4-5.29,11.43,11.43,0,0,1,5.82-3,8,8,0,0,1,2-.07c.23,0,.41.07.54.09S79.53,361.68,79.53,361.69Z" style="fill:#e0e0e0"></path></g><g id="freepik--Lectern--inject-3"><path d="M454.4,460.31v-115h-192s-4.47,115,0,115Z" style="fill:#455a64"></path><polygon points="454.4 345.31 371.68 421.78 184.38 421.78 261.61 344.55 454.4 345.31" style="fill:#455a64"></polygon><rect x="184.38" y="421.78" width="187.3" height="38.53" style="fill:#455a64"></rect><polygon points="260.38 421.78 261.61 344.55 454.4 345.31 371.68 421.78 260.38 421.78" style="fill:#455a64"></polygon><path d="M433.32,355.63l-1-.21a100.66,100.66,0,0,0,.25-33.53c-2.77-16.23-11.56-37.47-37.68-46.49l.32-.95c26.6,9.19,35.54,30.8,38.35,47.3A102,102,0,0,1,433.32,355.63Z" style="fill:#263238"></path><rect x="383.98" y="262.09" width="9.7" height="18.64" rx="4.59" transform="translate(-26.77 499.73) rotate(-63.7)" style="fill:#263238"></rect><path d="M371.68,460.31s0-.06,0-.18,0-.31,0-.53c0-.5,0-1.18,0-2.07,0-1.83,0-4.48-.07-7.83,0-6.77-.05-16.4-.09-27.92v-.1l.07-.06,27.2-25.19L438,360.2l12-10.94,3.27-2.95.86-.76a2.57,2.57,0,0,1,.3-.25s-.08.11-.27.29l-.82.8-3.2,3-11.84,11.06-39.2,36.34L371.83,422l.07-.17c0,11.52-.07,21.15-.09,27.92,0,3.35-.05,6-.06,7.83,0,.89,0,1.57,0,2.07,0,.22,0,.39,0,.53S371.68,460.31,371.68,460.31Z" style="fill:#263238"></path><path d="M370.17,422c0,.14-41.63.26-93,.26s-93-.12-93-.26,41.63-.27,93-.27S370.17,421.83,370.17,422Z" style="fill:#263238"></path><path d="M361.64,422s.11-.13.35-.36l1.08-1,4.22-4,16-15.06L440,348.41l.16.4-85.56,0-89,0,.16-.07-53.44,53.05-15.09,14.92-4,3.93-1,1c-.23.23-.36.34-.36.34s.11-.13.34-.36l1-1,4-4,15-15,53.3-53.18.07-.06h.1l89,0,85.56,0h.59l-.43.4-56.81,53-16.09,14.95-4.27,3.95-1.1,1Z" style="fill:#263238"></path><path d="M261.62,422.38c-.14,0-.26-15.73-.26-35.13s.12-35.14.26-35.14.26,15.73.26,35.14S261.77,422.38,261.62,422.38Z" style="fill:#263238"></path><g style="opacity:0.4"><path d="M369,456.91l-1.21-1.52c-.42-.49-.95-1.07-1.59-1.75s-1.43-1.41-2.39-2.16a34.07,34.07,0,0,0-7.49-4.63,42,42,0,0,0-11.19-3.27,53.22,53.22,0,0,0-14.14-.11,95.53,95.53,0,0,0-15.91,3.41c-5.5,1.6-11.18,3.62-17.11,5.59a136.83,136.83,0,0,1-18.67,5,77.34,77.34,0,0,1-19.29.94c-6.24-.42-12.21-1.32-17.88-2.21s-11.06-1.78-16.13-2.37a113.76,113.76,0,0,0-14.16-.78,59.1,59.1,0,0,0-20.14,3.49c-1.13.43-2.13.83-3,1.25a23.56,23.56,0,0,0-2.12,1l-1.71.93,1.69-1c.55-.33,1.27-.66,2.11-1.06s1.84-.83,3-1.27A58.74,58.74,0,0,1,211.86,453a113.64,113.64,0,0,1,14.18.75c5.08.59,10.47,1.46,16.14,2.35s11.63,1.78,17.86,2.2a77.48,77.48,0,0,0,19.25-.94,137,137,0,0,0,18.63-5.05c5.93-2,11.61-4,17.13-5.58a97.62,97.62,0,0,1,15.94-3.4,53.87,53.87,0,0,1,14.18.14,42.44,42.44,0,0,1,11.22,3.31,34,34,0,0,1,7.49,4.67c1,.76,1.71,1.54,2.39,2.18s1.16,1.28,1.57,1.77Z" style="fill:#fff"></path></g><g style="opacity:0.4"><path d="M275.17,430.58,273,431.82c-1.44.8-3.6,1.91-6.47,3.16a79.14,79.14,0,0,1-25.64,6.18,77.71,77.71,0,0,1-18.25-.87,3.35,3.35,0,0,1-2.23-1.11,1.37,1.37,0,0,1-.12-1.29,2.22,2.22,0,0,1,.85-1,11.6,11.6,0,0,1,2.36-1.06l2.44-.94c3.3-1.17,6.74-2.26,10.32-3.19,14.33-3.74,30.75-5,47.78-3.85a12.21,12.21,0,0,1,6.05,1.89,7,7,0,0,1,2.12,2.35,5,5,0,0,1,.61,3.08,7.15,7.15,0,0,1-3.49,5,19.67,19.67,0,0,1-5.72,2.12,171.79,171.79,0,0,1-22.85,4,272.7,272.7,0,0,1-39.24,1.13c-11.18-.41-20.2-1.1-26.44-1.57s-9.68-.78-9.68-.78l9.69.7c6.23.44,15.26,1.11,26.43,1.51a276,276,0,0,0,39.22-1.18,171.45,171.45,0,0,0,22.82-4A19.79,19.79,0,0,0,289.2,440a7,7,0,0,0,3.39-4.83,5.67,5.67,0,0,0-2.65-5.23,12.05,12.05,0,0,0-5.94-1.86c-17-1.17-33.41.11-47.71,3.84-3.58.92-7,2-10.31,3.18l-2.44.92a12.41,12.41,0,0,0-2.31,1,2.16,2.16,0,0,0-.8.9,1.2,1.2,0,0,0,.11,1.12,3.19,3.19,0,0,0,2.11,1,78,78,0,0,0,18.21.89,79.11,79.11,0,0,0,25.62-6.11c2.87-1.23,5-2.33,6.48-3.12Z" style="fill:#fff"></path></g><g style="opacity:0.4"><path d="M367.48,430s-3.18.55-8.39.92c-2.6.19-5.71.29-9.16.26s-7.24-.26-11.2-.69-7.7-1.09-11.08-1.79-6.38-1.5-8.88-2.27c-5-1.5-8-2.73-8-2.73l.55.17,1.59.55c.69.25,1.53.54,2.52.84s2.1.69,3.36,1c2.5.75,5.51,1.5,8.88,2.22s7.11,1.32,11.06,1.77,7.74.64,11.18.71,6.55,0,9.15-.22c1.3-.05,2.48-.18,3.51-.26s1.92-.18,2.64-.27l1.67-.19Z" style="fill:#fff"></path></g><g style="opacity:0.4"><path d="M439.06,457.17s.18-.3.56-.86.92-1.39,1.6-2.47a38.14,38.14,0,0,0,2.22-4.09,18.86,18.86,0,0,0,1.7-5.87,11.57,11.57,0,0,0-1.53-7.14,14.46,14.46,0,0,0-6.33-5.53,21.27,21.27,0,0,0-9.19-1.75,44.69,44.69,0,0,0-10,1.43c-1.7.38-3.33.94-4.94,1.45s-3.17,1.15-4.65,1.86a67.2,67.2,0,0,0-8.36,4.44,91.62,91.62,0,0,0-12.77,9.68c-3.39,3.06-6,5.73-7.71,7.59l-2,2.18-.7.75s.91-1.08,2.62-3,4.29-4.57,7.67-7.65A91,91,0,0,1,400,438.47a67.37,67.37,0,0,1,8.37-4.45c1.49-.72,3.08-1.26,4.67-1.87s3.26-1.08,5-1.46a43.91,43.91,0,0,1,10.08-1.43,21.39,21.39,0,0,1,9.28,1.78,14.63,14.63,0,0,1,6.4,5.61,11.76,11.76,0,0,1,1.53,7.24,19.22,19.22,0,0,1-1.74,5.91,38.16,38.16,0,0,1-2.26,4.08C439.91,456,439.06,457.17,439.06,457.17Z" style="fill:#fff"></path></g><g style="opacity:0.4"><path d="M429.4,461.87s-.13-.22-.33-.66a8.06,8.06,0,0,1-.54-2,12.21,12.21,0,0,1,.07-3.33,37.67,37.67,0,0,1,.95-4.31,23.34,23.34,0,0,0,.91-5.23,7.68,7.68,0,0,0-1.78-5.62,7.93,7.93,0,0,0-6.09-2.24,23.52,23.52,0,0,0-7.08,1.39A73.94,73.94,0,0,0,393,451.59a74.92,74.92,0,0,0-5.88,5c-.67.62-1.16,1.13-1.51,1.46s-.53.51-.53.51.68-.75,2-2a72.16,72.16,0,0,1,5.85-5.06,73,73,0,0,1,22.51-11.83,23.41,23.41,0,0,1,7.14-1.39,8.09,8.09,0,0,1,6.23,2.31,7.81,7.81,0,0,1,1.81,5.76,23.37,23.37,0,0,1-.94,5.26,38.51,38.51,0,0,0-1,4.29,12.56,12.56,0,0,0-.1,3.3,8.61,8.61,0,0,0,.5,2Z" style="fill:#fff"></path></g><g style="opacity:0.4"><path d="M415.73,459.09a11.53,11.53,0,0,0-1.45-1.52,7.63,7.63,0,0,0-4.66-1.71,7.55,7.55,0,0,0-4.67,1.65,10.9,10.9,0,0,0-1.48,1.5,5.59,5.59,0,0,1,1.38-1.61,7.29,7.29,0,0,1,9.52.06A5.67,5.67,0,0,1,415.73,459.09Z" style="fill:#fff"></path></g><g style="opacity:0.4"><path d="M455.24,391.76l-.9.4a21.87,21.87,0,0,0-2.49,1.35,31,31,0,0,0-7.56,7.1c-2.77,3.43-5.39,8-8.9,12.66a40,40,0,0,1-6.31,6.62,43.19,43.19,0,0,1-8.23,5.36,55.61,55.61,0,0,1-18.11,5.41,83.84,83.84,0,0,1-15.47.44c-4.41-.26-7.95-.71-10.39-1.05s-3.78-.58-3.78-.58.34,0,1,.12l2.81.38c2.44.32,6,.74,10.39,1a84.68,84.68,0,0,0,15.43-.49,55.93,55.93,0,0,0,18.05-5.4,44.06,44.06,0,0,0,8.19-5.33,40.86,40.86,0,0,0,6.29-6.58c3.51-4.64,6.14-9.22,8.94-12.64a30.5,30.5,0,0,1,7.63-7.08,19.31,19.31,0,0,1,2.51-1.32Z" style="fill:#fff"></path></g><g style="opacity:0.4"><path d="M434.87,386.51s-.24.3-.71.84-1.17,1.34-2.15,2.3a15.06,15.06,0,0,1-4,2.93,8.42,8.42,0,0,1-6.52.36,5.58,5.58,0,0,1-2.95-2.47,6.19,6.19,0,0,1-.56-4.15,8.93,8.93,0,0,1,2-4.06,19.61,19.61,0,0,1,3.6-3.23,22.65,22.65,0,0,1,9.43-4.29,14.38,14.38,0,0,1,5.54.15,11.42,11.42,0,0,1,5.1,2.59l.05,0,0,.06a39.18,39.18,0,0,1-2,6.48,40.2,40.2,0,0,1-15.16,18.29,38.05,38.05,0,0,1-9.5,4.45c-3.14.93-6.41,1.13-9-.07a9.08,9.08,0,0,1-4.88-5.54,8.64,8.64,0,0,1,.2-5.62,8.81,8.81,0,0,1,1.9-3.05,6.16,6.16,0,0,1,.94-.83l-.24.21a7.36,7.36,0,0,0-.67.65,8.93,8.93,0,0,0-1.85,3.05,8.56,8.56,0,0,0-.17,5.56A9,9,0,0,0,408,406.6c2.55,1.16,5.79,1,8.9,0a37.54,37.54,0,0,0,9.44-4.45A40,40,0,0,0,441.45,384a38.81,38.81,0,0,0,2-6.45l0,.1A12.59,12.59,0,0,0,433,374.94a22.23,22.23,0,0,0-9.36,4.24,19.63,19.63,0,0,0-3.57,3.19,8.72,8.72,0,0,0-2,4,6.07,6.07,0,0,0,.53,4,5.43,5.43,0,0,0,2.87,2.41,8.27,8.27,0,0,0,6.42-.33,15.34,15.34,0,0,0,4-2.88c1-1,1.69-1.75,2.17-2.28Z" style="fill:#fff"></path></g><path d="M208.56,422.08H362.35v-5.72H214.29a5.73,5.73,0,0,0-5.73,5.72Z" style="fill:#263238"></path><rect x="244.53" y="331.75" width="117.82" height="89.11" rx="3.34" transform="translate(606.88 752.61) rotate(180)" style="fill:#263238"></rect><rect x="249.45" y="335.99" width="107.98" height="79.36" style="fill:#fafafa"></rect><path d="M249.45,415.35s0-.5,0-1.46,0-2.39,0-4.24c0-3.72,0-9.16,0-16.1,0-13.86,0-33.68.07-57.56l-.13.11,108,0h0l-.15-.13c0,28.81,0,56,0,79.36l.14-.12-78.11.06-22,0h-.06l22,0,78.2,0h.14v-.11c0-23.4,0-50.55,0-79.36v-.14h-.17l-108,0h-.14V336c0,23.91.06,43.76.07,57.64,0,6.92,0,12.35,0,16.06,0,1.85,0,3.26,0,4.22S249.45,415.35,249.45,415.35Z" style="fill:#263238"></path><path d="M265.61,357.35h1.46l4.21,0,15.67,0,53.24.05-.13-.13V394l.13-.13-52.87,0-15.55,0-4.18,0h-1.08l-.36,0h1.44l4.18,0,15.55,0,52.87.05h.13v-36.9h-.13l-53.24,0-15.67,0-4.21,0-1.09,0Z" style="fill:#e0e0e0"></path><path d="M265.61,363.52c0,.07,16.69.13,37.29.13s37.29-.06,37.29-.13-16.69-.14-37.29-.14S265.61,363.44,265.61,363.52Z" style="fill:#e0e0e0"></path><path d="M266.15,368.43c0,.07,16.7.13,37.29.13s37.29-.06,37.29-.13-16.69-.13-37.29-.13S266.15,368.36,266.15,368.43Z" style="fill:#e0e0e0"></path><path d="M265.61,373.61c0,.07,16.69.13,37.29.13s37.29-.06,37.29-.13-16.69-.13-37.29-.13S265.61,373.54,265.61,373.61Z" style="fill:#e0e0e0"></path><path d="M265.61,378.66c0,.07,16.69.13,37.29.13s37.29-.06,37.29-.13-16.69-.14-37.29-.14S265.61,378.58,265.61,378.66Z" style="fill:#e0e0e0"></path><path d="M265.61,383.7c0,.08,16.69.14,37.29.14s37.29-.06,37.29-.14-16.69-.13-37.29-.13S265.61,383.63,265.61,383.7Z" style="fill:#e0e0e0"></path><path d="M340.19,388.75c0-.07-16.7-.13-37.29-.13s-37.29.06-37.29.13,16.69.13,37.29.13S340.19,388.82,340.19,388.75Z" style="fill:#e0e0e0"></path><path d="M325.42,394.54c.07,0,.13-8.32.13-18.59s-.06-18.6-.13-18.6-.13,8.32-.13,18.6S325.35,394.54,325.42,394.54Z" style="fill:#e0e0e0"></path><path d="M310.47,394.54c.07,0,.13-8.32.13-18.59s-.06-18.6-.13-18.6-.14,8.32-.14,18.6S310.39,394.54,310.47,394.54Z" style="fill:#e0e0e0"></path><path d="M295.51,394.54c.08,0,.14-8.32.14-18.59s-.06-18.6-.14-18.6-.13,8.32-.13,18.6S295.44,394.54,295.51,394.54Z" style="fill:#e0e0e0"></path><path d="M280.56,394.54c.07,0,.13-8.32.13-18.59s-.06-18.6-.13-18.6-.13,8.32-.13,18.6S280.49,394.54,280.56,394.54Z" style="fill:#e0e0e0"></path><path d="M265.61,394.54c.07,0,.13-8.32.13-18.59s-.06-18.6-.13-18.6-.14,8.32-.14,18.6S265.53,394.54,265.61,394.54Z" style="fill:#e0e0e0"></path><path d="M265.61,363.52a4,4,0,0,0,.56.43l1.67,1.19,6.26,4.32c5.33,3.65,12.79,8.73,21.27,14.46l.1.07.13,0,6.35-2.14,8.6-2.91-.23,0,15,10.05h0l10.82,3.74,3,1,.78.24.27.07-.25-.13-.76-.3-2.94-1.09-10.75-3.91.05,0-14.93-10.14-.1-.07-.13,0-8.6,2.9-6.35,2.14.23,0c-8.49-5.72-16-10.74-21.36-14.32L268,365l-1.73-1.11A3.46,3.46,0,0,0,265.61,363.52Z" style="fill:#28005B"></path><path d="M324.51,388.75a.91.91,0,1,0,.91-.91A.91.91,0,0,0,324.51,388.75Z" style="fill:#28005B"></path><path d="M309.56,378.66a.91.91,0,1,0,.91-.91A.91.91,0,0,0,309.56,378.66Z" style="fill:#28005B"></path><path d="M294.6,383.62a.91.91,0,0,0,1.82,0,.91.91,0,0,0-1.82,0Z" style="fill:#28005B"></path><path d="M279.5,373.65a.91.91,0,1,0,.91-.91A.91.91,0,0,0,279.5,373.65Z" style="fill:#28005B"></path><path d="M265.61,388.75a1.21,1.21,0,0,0,.28-.15l.8-.5,3-2,11-7.23h-.22c4.25,2.87,9.35,6.29,14.92,10l.2.14.15-.2c2.47-3.32,5.12-6.9,7.86-10.6l7.09-9.58-.39,0,15,15.1,0,0,0,0,11.11,3.61,3,.95.79.24a.93.93,0,0,0,.28.06l-.26-.12-.78-.28-3-1.06-11.06-3.77.08.05c-4.12-4.21-9.23-9.4-14.91-15.19l-.21-.21-.18.24c-2.27,3-4.65,6.27-7.1,9.58l-7.85,10.61.35-.06-15-10-.11-.08-.11.08L269.58,386l-3,2.05-.76.55C265.69,388.67,265.6,388.74,265.61,388.75Z" style="fill:#455a64"></path><path d="M309.56,368.56a.91.91,0,0,0,1.82,0,.91.91,0,0,0-1.82,0Z" style="fill:#455a64"></path><path d="M324.51,383.7a.91.91,0,1,0,.91-.91A.91.91,0,0,0,324.51,383.7Z" style="fill:#455a64"></path><path d="M294.6,388.75a.91.91,0,1,0,.91-.91A.91.91,0,0,0,294.6,388.75Z" style="fill:#455a64"></path><path d="M279.65,379.57a.91.91,0,1,0,.91-.91A.91.91,0,0,0,279.65,379.57Z" style="fill:#455a64"></path><path d="M331.66,398.16a3.78,3.78,0,0,0,1.44.14,3.74,3.74,0,0,0,1.44-.14,4.13,4.13,0,0,0-1.44-.13A4.18,4.18,0,0,0,331.66,398.16Z" style="fill:#e0e0e0"></path><path d="M316.38,398.16a3.78,3.78,0,0,0,1.44.14,3.74,3.74,0,0,0,1.44-.14,4.13,4.13,0,0,0-1.44-.13A4.18,4.18,0,0,0,316.38,398.16Z" style="fill:#e0e0e0"></path><path d="M301.1,398.16a3.74,3.74,0,0,0,1.44.14,3.78,3.78,0,0,0,1.44-.14,4.18,4.18,0,0,0-1.44-.13A4.13,4.13,0,0,0,301.1,398.16Z" style="fill:#e0e0e0"></path><path d="M285.81,398.16a3.78,3.78,0,0,0,1.44.14,3.74,3.74,0,0,0,1.44-.14,4.13,4.13,0,0,0-1.44-.13A4.18,4.18,0,0,0,285.81,398.16Z" style="fill:#e0e0e0"></path><path d="M270.53,398.16a3.74,3.74,0,0,0,1.44.14,3.78,3.78,0,0,0,1.44-.14A4.18,4.18,0,0,0,272,398,4.13,4.13,0,0,0,270.53,398.16Z" style="fill:#e0e0e0"></path><path d="M342.3,393.78a4.88,4.88,0,0,0,2.32,0,5.24,5.24,0,0,0-2.32,0Z" style="fill:#e0e0e0"></path><path d="M342.3,387.91a4.88,4.88,0,0,0,2.32,0,5.24,5.24,0,0,0-2.32,0Z" style="fill:#e0e0e0"></path><path d="M342.3,382a4.88,4.88,0,0,0,2.32,0,5.24,5.24,0,0,0-2.32,0Z" style="fill:#e0e0e0"></path><path d="M342.3,376.17a4.88,4.88,0,0,0,2.32,0,5.24,5.24,0,0,0-2.32,0Z" style="fill:#e0e0e0"></path><path d="M342.3,370.3a4.88,4.88,0,0,0,2.32,0,5.24,5.24,0,0,0-2.32,0Z" style="fill:#e0e0e0"></path><path d="M342.3,364.43a4.88,4.88,0,0,0,2.32,0,5.24,5.24,0,0,0-2.32,0Z" style="fill:#e0e0e0"></path><path d="M342.3,358.56a4.88,4.88,0,0,0,2.32,0,5.24,5.24,0,0,0-2.32,0Z" style="fill:#e0e0e0"></path><rect x="319.15" y="344.65" width="21.43" height="1.52" transform="translate(659.73 690.83) rotate(180)" style="fill:#28005B"></rect><path d="M280.88,349.09c0,.08,13.4.13,29.92.13s29.92-.05,29.92-.13S327.33,349,310.8,349,280.88,349,280.88,349.09Z" style="fill:#263238"></path><path d="M302.75,405.49c0,.07,8.17.13,18.25.13s18.24-.06,18.24-.13-8.17-.13-18.24-.13S302.75,405.42,302.75,405.49Z" style="fill:#263238"></path><path d="M330.48,408.25a58.42,58.42,0,0,0,7.79,0,54.25,54.25,0,0,0-7.79,0Z" style="fill:#263238"></path><path d="M269.67,405c0,.08,5.81.14,13,.14s13-.06,13-.14-5.81-.13-13-.13S269.67,404.93,269.67,405Z" style="fill:#263238"></path><path d="M283.78,406.79a63.31,63.31,0,0,0,8.11,0,58.8,58.8,0,0,0-8.11,0Z" style="fill:#263238"></path></g><g id="freepik--Character--inject-3"><rect x="89.71" y="419.22" width="107.04" height="40.59" style="fill:#263238"></rect><path d="M267.69,271.23s-3.8-3.47-5-7.43a18.18,18.18,0,0,0-5.29-7.77c-.66-.5-3.3-3.47-3.3-3.47s-.33-3,3.47-2.65a15.71,15.71,0,0,1,10.08,4.8c2.64,2.81,4.13,1.15,5.95.16s7.27-2.81,8.26-6.11,6.28-13.39,6.28-13.39,5.45-9.25,7.11-8.92,2.6,1.43,1.94,3.75-5.74,15.58-4.75,17.24,2,1.32,2.81.49,14.79-17.28,17.77-17.09,2.89,2.71,1.4,4.7-13.55,16.85-13.55,16.85l7.6-5.29s7.94-7.28,9.7-7c2.6.47,1.49,4.27-.78,6.81-2.12,2.37-7.76,8.59-7.76,8.59l-5.46,7.11s13.09-5.66,13.91-4.34,1,3.31,0,4.13-12.42,7.15-12.42,7.15l-13.72,15Z" style="fill:#ffbe9d"></path><path d="M104.49,221.36l47.83-.62,1.48-40.86s3.27-.7,3.49-18.43,1-47.88,1-47.88h0a61.66,61.66,0,0,0-61.94,7.79l-2.63,2,10.74,60Z" style="fill:#ffbe9d"></path><path d="M99.31,145.2c-.3-.13-12.19-3.61-11.8,8.52S100,163,100,162.61,99.31,145.2,99.31,145.2Z" style="fill:#ffbe9d"></path><path d="M156.26,142.66c.31-.13,11.12-3,10.73,9.09s-12.48,9.23-12.49,8.88S156.26,142.66,156.26,142.66Z" style="fill:#ffbe9d"></path><path d="M169.87,107.63a6.56,6.56,0,0,0-2.41-5.85,4.65,4.65,0,0,0-6,.45,5.42,5.42,0,0,0-4.66-6.57c-2.89-.18-5.36,2-8.16,2.77s-5.65.1-8.28-1S135.26,95,132.6,94a22.68,22.68,0,0,0-29,13.32c-3.88-1.22-8.28.75-10.68,4s-3,7.6-2.53,11.64a37.52,37.52,0,0,0,2,8c0,.22,0,.45,0,.68.19,9.75,5.27,40.57,9.43,40.64,7.26.11,1.55-32.93,1.55-32.93,8.9-3.43,5.58-16.77,7.81-18.79s6.88-6.73,25.51,2.8c7.24,3.7,16.86,3.58,22.11,2.39l.47-.1.11,0a1.56,1.56,0,0,0,.15-.06,16.76,16.76,0,0,0,4.78-2,9.45,9.45,0,0,0,3.94-4.38,5.19,5.19,0,0,0-1-5.55A11.35,11.35,0,0,0,169.87,107.63Z" style="fill:#263238"></path><path d="M95.38,143.84c1.81,10.16,1.45,15.5,3.13,22.29,2.65,10.74,8,19,17.66,24.34s22.76,5.27,31.08-2C153,183.37,157.1,177.64,158,170s1.71-21.14,1.76-28.81c.1-13.85,1-27.09,1-27.09L121.19,107,98.68,120.34Z" style="fill:#263238"></path><path d="M136.18,196.59c.06.29-3.05,1.06-6.93.62s-6.75-1.85-6.63-2.11,3,.61,6.75,1S136.13,196.27,136.18,196.59Z" style="fill:#263238"></path><path d="M146.47,105.18a5.82,5.82,0,0,1-1.88.34,11,11,0,0,1-5.07-1.18,36.38,36.38,0,0,1-6.4-4.3,17.38,17.38,0,0,0-8.36-3.85,14.58,14.58,0,0,0-14.5,6.71,17.16,17.16,0,0,0-2.35,6.59,9.18,9.18,0,0,1,.2-1.9,15,15,0,0,1,7.45-10.18,15.24,15.24,0,0,1,9.26-1.66,17.46,17.46,0,0,1,8.54,4,38.55,38.55,0,0,0,6.3,4.34,11.29,11.29,0,0,0,4.92,1.29A15.82,15.82,0,0,0,146.47,105.18Z" style="fill:#fff"></path><path d="M108.47,110.17a16.8,16.8,0,0,0-2.84-1.06A9.09,9.09,0,0,0,94.54,116a17.21,17.21,0,0,0-.31,3,2.9,2.9,0,0,1-.14-.82,8,8,0,0,1,.15-2.27,9.13,9.13,0,0,1,11.46-7.11,8.51,8.51,0,0,1,2.1.88A2.63,2.63,0,0,1,108.47,110.17Z" style="fill:#455a64"></path><path d="M107.3,153.42c-.28.12-1.77-2.66-3.32-6.22s-2.58-6.54-2.3-6.66,1.76,2.66,3.31,6.22S107.58,153.3,107.3,153.42Z" style="fill:#455a64"></path><path d="M117.66,160.38c-.16.24-3.18-1.85-5.6-5.59s-3.15-7.33-2.87-7.38,1.45,3.22,3.8,6.77S117.88,160.13,117.66,160.38Z" style="fill:#455a64"></path><path d="M127.89,162.62c-.16.26-2.41-.88-4.73-2.91s-3.77-4.11-3.54-4.3,2,1.5,4.26,3.46S128.06,162.36,127.89,162.62Z" style="fill:#455a64"></path><path d="M146,146.19c.29,0,.26,2.85-1.07,6s-3.31,5.22-3.52,5,1.26-2.43,2.49-5.45S145.63,146.15,146,146.19Z" style="fill:#455a64"></path><path d="M152.07,136.61c.29,0,.58,3.43-.69,7.43s-3.46,6.68-3.68,6.5,1.44-3,2.62-6.83S151.75,136.6,152.07,136.61Z" style="fill:#455a64"></path><path d="M156.77,112.1a7.28,7.28,0,0,1-1.58,1.22,12.16,12.16,0,0,1-5.21,1.61,18.3,18.3,0,0,1-8-1.23,65.21,65.21,0,0,1-8.86-4.42,37.44,37.44,0,0,0-9-3.88,14.73,14.73,0,0,0-7.88,0,10.86,10.86,0,0,0-4.62,2.64c-.9.91-1.24,1.54-1.28,1.51a6.42,6.42,0,0,1,1.16-1.63,10.54,10.54,0,0,1,4.65-2.82,15,15,0,0,1,8.07-.14,37.17,37.17,0,0,1,9.11,3.89,67.8,67.8,0,0,0,8.8,4.43,18.25,18.25,0,0,0,7.82,1.29A12.23,12.23,0,0,0,156.77,112.1Z" style="fill:#455a64"></path><path d="M160.29,117.85a2.73,2.73,0,0,1-.64.42,15.14,15.14,0,0,1-1.89.93,22.49,22.49,0,0,1-6.72,1.68,22.8,22.8,0,0,1-6.92-.43,18.06,18.06,0,0,1-2-.57,2.43,2.43,0,0,1-.71-.31c0-.07,1.07.26,2.79.57a26.61,26.61,0,0,0,6.82.3,26.19,26.19,0,0,0,6.65-1.53C159.29,118.29,160.26,117.78,160.29,117.85Z" style="fill:#455a64"></path><path d="M47.33,230.44s10.44,48.54,17,68.65c9.27,28.58,19.49,54.62,19.49,54.62s-7,63.61-10.82,86.83l-3.57,19.91h33.19l7.94-33.18,4.17,33.18,96.65-.26L199.06,350.41l-2.66-45.77,5.8-74.2-46.59-18.11-56.1-1.8Z" style="fill:#28005B"></path><path d="M31.27,366.15a46.66,46.66,0,0,1-5.7-28.23c2.08-15.8,14.51-78.47,14.51-78.47l7.25-29,28,63.71-4.66,54.39,13.57,7-4.4,32.67S34.22,372.42,31.27,366.15Z" style="fill:#28005B"></path><path d="M176.42,285.81c1.09,1.51,49.21,69.16,62.77,76.71,12.25,6.81,24.17,5.07,27.8-.11S292.85,289,292.85,289,284.6,269.46,267,271.53l-17.1,35s-20.23-30.3-22.82-37.41-24.21-39.64-24.87-38.71C199.65,234.06,170.2,277.2,176.42,285.81Z" style="fill:#28005B"></path><path d="M99.51,211.69,104,200.12s48.21,1.34,49,1.61l3.38,10.91-33.27,4.14Z" style="fill:#28005B"></path><polygon points="103.99 200.12 104.49 197.94 152.62 200.12 153.01 201.73 103.99 200.12" style="fill:#f5f5f5"></polygon><g style="opacity:0.30000000000000004"><path d="M72.75,323.94c-11.44-20.93-19-47.89-24.63-71.07-1.35,21.78-.61,46.86,6.07,67.63,2.27,7.05,9.94,18.15,17.15,19.86.33.24.79-10.82,1.41-16.42"></path></g><path d="M78.34,400.47a.63.63,0,0,1,0-.22l.06-.66c0-.6.13-1.45.24-2.53.23-2.25.56-5.48,1-9.56.87-8.22,2.11-19.84,3.58-33.54v.1c-3.29-9.27-7.22-19.56-11.39-30.37-3.93-10.21-7.68-19.94-10.88-28.86s-5.92-17-8-23.89c-4.18-13.73-5.85-22.46-5.85-22.46a2.61,2.61,0,0,1,.12.4c.07.28.17.67.3,1.16.27,1.05.65,2.55,1.13,4.47s1.16,4.3,1.9,7.05,1.67,5.85,2.75,9.27c2.1,6.85,4.83,14.93,8.08,23.84s7,18.62,10.92,28.83c4.16,10.82,8.08,21.11,11.35,30.4l0,.06V354c-1.54,13.7-2.85,25.31-3.77,33.52-.47,4.07-.85,7.3-1.11,9.54-.14,1.09-.24,1.93-.32,2.53l-.09.65A1.73,1.73,0,0,1,78.34,400.47Z" style="fill:#263238"></path><path d="M196.61,312.51s-.06-.05-.15-.16l-.43-.53c-.36-.46-.93-1.13-1.58-2.05a78.53,78.53,0,0,1-5.18-8,71.89,71.89,0,0,1-5.76-12.9,61.5,61.5,0,0,1-3.16-17,52.62,52.62,0,0,1,2.29-17.14,46.8,46.8,0,0,1,6.1-12.74,40.38,40.38,0,0,1,6.23-7.2c.81-.78,1.54-1.28,2-1.66l.53-.41c.13-.09.19-.14.2-.13a.79.79,0,0,1-.16.17l-.5.45c-.43.41-1.14.93-1.92,1.73a42.69,42.69,0,0,0-6.07,7.26,47.91,47.91,0,0,0-5.94,12.67,52.83,52.83,0,0,0-2.23,17A62.22,62.22,0,0,0,184,288.72a74.66,74.66,0,0,0,5.63,12.87,87.34,87.34,0,0,0,5,8.06c.62.93,1.16,1.62,1.49,2.11l.39.55A.79.79,0,0,1,196.61,312.51Z" style="fill:#263238"></path><g style="opacity:0.30000000000000004"><path d="M180.79,273.7c2.82,26,8.08,51.85,18.28,75.93l-2.38-35.9A116.62,116.62,0,0,1,180.79,273.7Z"></path></g><g style="opacity:0.30000000000000004"><path d="M94,326.46a183.7,183.7,0,0,0,64.05,60.17"></path></g><path d="M70.73,347.47c0,.1-1.12-.3-3-.52a16.7,16.7,0,0,0-3.23-.09,19.16,19.16,0,0,0-3.89.7A19.91,19.91,0,0,0,57,349.09a18.22,18.22,0,0,0-2.66,1.84C53,352.12,52.25,353,52.17,353s.13-.26.44-.69a5.91,5.91,0,0,1,.62-.73,8.34,8.34,0,0,1,.89-.91,15.57,15.57,0,0,1,2.66-2,17.93,17.93,0,0,1,3.73-1.62,17.72,17.72,0,0,1,4-.68,16,16,0,0,1,3.31.2,10.16,10.16,0,0,1,1.24.27,5.59,5.59,0,0,1,.92.29A2.38,2.38,0,0,1,70.73,347.47Z" style="fill:#263238"></path><path d="M257.81,327.63a28.94,28.94,0,0,1-.89-3.36c-.52-2.08-1.29-4.94-2.31-8s-2.08-5.87-2.89-7.85a30.54,30.54,0,0,1-1.27-3.24,3.45,3.45,0,0,1,.49.8c.28.53.67,1.31,1.12,2.29a77.1,77.1,0,0,1,3.05,7.84,75.44,75.44,0,0,1,2.17,8.12c.21,1.06.37,1.92.45,2.51A3.32,3.32,0,0,1,257.81,327.63Z" style="fill:#263238"></path><path d="M253.08,340a7.32,7.32,0,0,1-.39-1.27c-.22-.83-.5-2-.81-3.52a108.66,108.66,0,0,1-1.77-11.8,110.94,110.94,0,0,1-.5-11.91c0-1.53.08-2.76.14-3.61a5.59,5.59,0,0,1,.14-1.32,7.65,7.65,0,0,1,.06,1.32c0,1,0,2.17,0,3.61.05,3,.21,7.24.65,11.87s1.08,8.77,1.61,11.77l.65,3.54A5.76,5.76,0,0,1,253.08,340Z" style="fill:#263238"></path><path d="M166.69,390.26l-.25-.06-.73-.24c-.64-.22-1.6-.49-2.79-1a83.5,83.5,0,0,1-9.91-4.44A104,104,0,0,1,139.37,376a137.54,137.54,0,0,1-14.94-12.87,251.72,251.72,0,0,1-23.19-27.27c-2.75-3.67-4.94-6.66-6.43-8.74l-1.72-2.4-.43-.63c-.1-.15-.15-.22-.14-.23a1.07,1.07,0,0,1,.18.19l.48.61L95,327l6.56,8.63a268.42,268.42,0,0,0,23.27,27.13,141.3,141.3,0,0,0,14.86,12.86,108.86,108.86,0,0,0,13.52,8.64,93.65,93.65,0,0,0,9.81,4.57c1.18.5,2.13.8,2.75,1.06l.72.28C166.62,390.21,166.7,390.25,166.69,390.26Z" style="fill:#263238"></path><g style="opacity:0.30000000000000004"><path d="M70.72,347.6c-5.54-1.93-13.12.11-17.58,4.35a9.35,9.35,0,0,0-2.5,3.54,4.91,4.91,0,0,0,.31,4.22c1.18,1.85,3.81,2.36,5.88,1.63a10.89,10.89,0,0,0,4.94-4.21,57.83,57.83,0,0,1,3.82-5.36,7.85,7.85,0,0,1,5.69-2.89l-.64-.34Z"></path></g><g style="opacity:0.30000000000000004"><polygon points="78.38 352.55 76.72 387.15 79.81 388.24 83.31 355.11 78.38 352.55"></polygon></g><g style="opacity:0.30000000000000004"><path d="M250,306.56a139.51,139.51,0,0,0,3.78,36c.38,1.59,1.48,3.59,3,3.11s1.41-2.5,1.06-4q-1.71-7.27-3.41-14.55l-4.8-20.45"></path></g><path d="M267,271.53l1.32-2.92s11.35-3.39,18.61,2.92,8,11.66,8,11.66l-2.62,4.66S284.37,271.29,267,271.53Z" style="fill:#fafafa"></path><path d="M154.68,212.07a2.35,2.35,0,0,1-.56.12l-1.62.22c-1.41.19-3.45.41-6,.62a177.59,177.59,0,0,1-19.83.53,179.06,179.06,0,0,1-19.77-1.66c-2.51-.36-4.54-.7-5.93-1l-1.61-.31a2.28,2.28,0,0,1-.55-.15,2.45,2.45,0,0,1,.57,0l1.62.22c1.4.21,3.43.49,6,.8,5,.63,12,1.29,19.73,1.51s14.73,0,19.79-.37c2.53-.17,4.57-.33,6-.46l1.63-.13A3.67,3.67,0,0,1,154.68,212.07Z" style="fill:#263238"></path><path d="M106.86,410.22c.14,0,2,11.21,4.17,25.08s3.8,25.13,3.66,25.15-2-11.2-4.17-25.07S106.72,410.25,106.86,410.22Z" style="fill:#263238"></path></g><g id="freepik--Dresk--inject-3"><path d="M480.06,460.53c0,.14-103.91.26-232,.26s-232.07-.12-232.07-.26,103.88-.26,232.07-.26S480.06,460.39,480.06,460.53Z" style="fill:#263238"></path></g><g id="freepik--speech-bubble--inject-3"><path d="M186.3,172.43l10.33-18.19a48.76,48.76,0,1,1,11.68,13v0Z" style="fill:#fff"></path><path d="M186.3,172.43l22-5.31-.07.21,0,0-.6-.78.78.6a49.85,49.85,0,0,0,10,5.94,48.32,48.32,0,0,0,13.27,3.73,43.59,43.59,0,0,0,7.64.37c1.32-.08,2.66-.12,4-.24l4.08-.62a48.76,48.76,0,0,0,30.09-19.4,48.1,48.1,0,0,0,8.12-18.61,49.3,49.3,0,0,0-.59-21.42,47.36,47.36,0,0,0-10.32-19.79l-2-2.16c-.65-.73-1.42-1.33-2.12-2s-1.39-1.34-2.18-1.9l-2.31-1.73a21,21,0,0,0-2.39-1.58l-2.44-1.49L258.69,85a24.73,24.73,0,0,0-2.58-1.15,49.31,49.31,0,0,0-21.58-3.33,47.59,47.59,0,0,0-19.82,5.84,49,49,0,0,0-22.94,28.11,52.35,52.35,0,0,0-2.14,15.7,48.06,48.06,0,0,0,2.31,13.58,49.58,49.58,0,0,0,4.79,10.43l0,.07,0,.06c-6.69,11.63-10,17.36-10.44,18.13.44-.77,3.67-6.55,10.22-18.25v.12a49,49,0,0,1-4.87-10.47,48.17,48.17,0,0,1-2.38-13.66,52.51,52.51,0,0,1,2.11-15.83,49.42,49.42,0,0,1,23.1-28.41,48,48,0,0,1,20-5.92,49.57,49.57,0,0,1,21.8,3.36,21.62,21.62,0,0,1,2.61,1.16l2.58,1.25,2.47,1.5a20.25,20.25,0,0,1,2.42,1.6l2.33,1.74c.8.57,1.47,1.29,2.21,1.93s1.49,1.28,2.14,2l2,2.19a48,48,0,0,1,10.42,20,49.57,49.57,0,0,1,.58,21.65,48.54,48.54,0,0,1-8.22,18.79,49.11,49.11,0,0,1-30.4,19.52l-4.11.62c-1.36.12-2.71.15-4,.22a44.26,44.26,0,0,1-7.7-.38,48.44,48.44,0,0,1-23.35-9.84l.18-.18v0l.13.16-.2,0Z" style="fill:#263238"></path><path d="M224.7,128a4,4,0,1,1-4-4A4,4,0,0,1,224.7,128Z" style="fill:#263238"></path><path d="M240.8,128a4,4,0,1,1-4-4A4,4,0,0,1,240.8,128Z" style="fill:#263238"></path><path d="M256.87,126a4,4,0,1,1-5.5-1.47A4,4,0,0,1,256.87,126Z" style="fill:#263238"></path></g></svg>