<svg xmlns="http://www.w3.org/2000/svg" xmlns:xlink="http://www.w3.org/1999/xlink" viewBox="0 0 500 500"><defs><clipPath id="freepik--clip-path--inject-167"><path d="M147.81,308.33,146.51,349l-.58,18.15-29.59,7.43-7.89,2C92.16,365.58,94.56,337,94.56,337l7.94-5.71,4.76.95S137.2,310,147.81,308.33Z" style="fill:#28005B;stroke:#263238;stroke-linecap:round;stroke-linejoin:round"></path></clipPath><clipPath id="freepik--clip-path-2--inject-167"><path d="M292.81,313.58c-2,8.09-5.72,12.46-8.87,14.79a13.77,13.77,0,0,1-5.49,2.63l-33,18.29s-7-15.92-5.26-34.52a54.19,54.19,0,0,1,5.26-19l31.72-5.61,2.94-2.94h5.22S296.73,297.79,292.81,313.58Z" style="fill:#28005B;stroke:#263238;stroke-linecap:round;stroke-linejoin:round"></path></clipPath></defs><g id="freepik--background-simple--inject-167"><path d="M135.47,442.4c24.21,24.32,81.91,13.76,106.6-2.65C322.24,386.5,462.86,297.67,466.26,174c1.45-52.59-45.55-79-65.1-86.63-47-18.28-98.07-22.84-148.44-23.85-52.62-1-108.95,2.18-155.64,29-17.69,10.16-34.3,23-45.45,40.32C40.29,150.36,34,171.09,32.76,191.9c-2.07,33.56,7.78,66.92,22.16,97.31s33.26,58.4,50.67,87.17C116.94,395.16,115.07,421.91,135.47,442.4Z" style="fill:#28005B"></path><path d="M135.47,442.4c24.21,24.32,81.91,13.76,106.6-2.65C322.24,386.5,462.86,297.67,466.26,174c1.45-52.59-45.55-79-65.1-86.63-47-18.28-98.07-22.84-148.44-23.85-52.62-1-108.95,2.18-155.64,29-17.69,10.16-34.3,23-45.45,40.32C40.29,150.36,34,171.09,32.76,191.9c-2.07,33.56,7.78,66.92,22.16,97.31s33.26,58.4,50.67,87.17C116.94,395.16,115.07,421.91,135.47,442.4Z" style="fill:#fff;opacity:0.7000000000000001"></path></g><g id="freepik--Window--inject-167"><rect x="50.67" y="55.96" width="398.65" height="17.19" style="fill:none;stroke:#263238;stroke-linecap:round;stroke-linejoin:round"></rect><path d="M443.49,68.1a5,5,0,1,1,0-7.08A5,5,0,0,1,443.49,68.1Z" style="fill:none;stroke:#263238;stroke-linecap:round;stroke-linejoin:round"></path><line x1="441.77" y1="62.74" x2="438.12" y2="66.38" style="fill:none;stroke:#263238;stroke-linecap:round;stroke-linejoin:round"></line><line x1="441.77" y1="66.38" x2="438.12" y2="62.74" style="fill:none;stroke:#263238;stroke-linecap:round;stroke-linejoin:round"></line><path d="M429.92,64.56a5,5,0,1,1-5-5A5,5,0,0,1,429.92,64.56Z" style="fill:none;stroke:#263238;stroke-linecap:round;stroke-linejoin:round"></path><polygon points="424.91 67.14 424.91 61.98 427.49 61.98 427.49 64.56 422.33 64.56 422.33 67.14 424.91 67.14" style="fill:none;stroke:#263238;stroke-linecap:round;stroke-linejoin:round"></polygon><path d="M414.89,64.56a5,5,0,1,1-5-5A5,5,0,0,1,414.89,64.56Z" style="fill:none;stroke:#263238;stroke-linecap:round;stroke-linejoin:round"></path><line x1="412.46" y1="64.56" x2="407.3" y2="64.56" style="fill:none;stroke:#263238;stroke-linecap:round;stroke-linejoin:round"></line><polyline points="50.02 167.23 50.02 77.9 125.04 77.9" style="fill:none;stroke:#263238;stroke-linecap:round;stroke-linejoin:round"></polyline><polyline points="449.33 218.52 449.33 77.9 409.88 77.9" style="fill:none;stroke:#263238;stroke-linecap:round;stroke-linejoin:round"></polyline><line x1="449.33" y1="228.02" x2="449.33" y2="259" style="fill:none;stroke:#263238;stroke-linecap:round;stroke-linejoin:round"></line><line x1="449.33" y1="282.59" x2="449.33" y2="294.74" style="fill:none;stroke:#263238;stroke-linecap:round;stroke-linejoin:round"></line><line x1="49.97" y1="175.37" x2="49.97" y2="189.61" style="fill:none;stroke:#263238;stroke-linecap:round;stroke-linejoin:round"></line><line x1="133.35" y1="77.9" x2="239.88" y2="77.9" style="fill:none;stroke:#263238;stroke-linecap:round;stroke-linejoin:round"></line><line x1="273.94" y1="77.9" x2="280.72" y2="77.9" style="fill:none;stroke:#263238;stroke-linecap:round;stroke-linejoin:round"></line></g><g id="freepik--Folders--inject-167"><path d="M362.46,386.9h-6.4a4.34,4.34,0,0,1-4.15-3.56l-1.55-9.74" style="fill:none;stroke:#263238;stroke-linecap:round;stroke-linejoin:round"></path><path d="M385.41,373.6l1.56,9.74a3,3,0,0,1-3,3.56H365.63" style="fill:none;stroke:#263238;stroke-linecap:round;stroke-linejoin:round"></path><path d="M372.75,360.29h7a4.34,4.34,0,0,1,4.14,3.56l.94,5.91" style="fill:none;stroke:#263238;stroke-linecap:round;stroke-linejoin:round"></path><line x1="367.89" y1="360.29" x2="370.1" y2="360.29" style="fill:none;stroke:#263238;stroke-linecap:round;stroke-linejoin:round"></line><path d="M349.93,370.89l-1.13-7a3,3,0,0,1,3-3.56h11.58" style="fill:none;stroke:#263238;stroke-linecap:round;stroke-linejoin:round"></path><path d="M375.78,354.88h-2.57a1.11,1.11,0,0,0-1,.69l-.86,2.21H356.06a3.58,3.58,0,0,0-3.39,2.43" style="fill:none;stroke:#263238;stroke-linecap:round;stroke-linejoin:round"></path><path d="M387.54,361.36a3.56,3.56,0,0,0-3.32-3.55l-.87-2.24a1.11,1.11,0,0,0-1-.69H377.5" style="fill:none;stroke:#263238;stroke-linecap:round;stroke-linejoin:round"></path><path d="M384,386.9a3.57,3.57,0,0,0,3.58-3.57V365" style="fill:none;stroke:#263238;stroke-linecap:round;stroke-linejoin:round"></path><path d="M298.45,377.16l-2.12-13.31a3,3,0,0,1,3-3.56h4.6" style="fill:none;stroke:#263238;stroke-linecap:round;stroke-linejoin:round"></path><path d="M319.49,386.9H303.58a4.35,4.35,0,0,1-4.15-3.56l-.49-3.09" style="fill:none;stroke:#263238;stroke-linecap:round;stroke-linejoin:round"></path><line x1="327.14" y1="386.9" x2="321.86" y2="386.9" style="fill:none;stroke:#263238;stroke-linecap:round;stroke-linejoin:round"></line><path d="M308,360.29h19.28a4.34,4.34,0,0,1,4.14,3.56l3.11,19.49a3,3,0,0,1-3,3.56" style="fill:none;stroke:#263238;stroke-linecap:round;stroke-linejoin:round"></path><path d="M312.5,357.78h-8.92a3.59,3.59,0,0,0-3.39,2.43" style="fill:none;stroke:#263238;stroke-linecap:round;stroke-linejoin:round"></path><path d="M335.06,373.6V361.36a3.56,3.56,0,0,0-3.32-3.55l-.87-2.24a1.09,1.09,0,0,0-1-.69h-9.13a1.09,1.09,0,0,0-1,.69l-.86,2.21h-3.45" style="fill:none;stroke:#263238;stroke-linecap:round;stroke-linejoin:round"></path><path d="M331.48,386.9a3.57,3.57,0,0,0,3.58-3.57V376" style="fill:none;stroke:#263238;stroke-linecap:round;stroke-linejoin:round"></path><path d="M310,338.71h-6.41a4.35,4.35,0,0,1-4.15-3.56l-1.55-9.75" style="fill:none;stroke:#263238;stroke-linecap:round;stroke-linejoin:round"></path><path d="M332.94,325.4l1.55,9.75a3,3,0,0,1-3,3.56H313.15" style="fill:none;stroke:#263238;stroke-linecap:round;stroke-linejoin:round"></path><path d="M320.27,312.09h7a4.35,4.35,0,0,1,4.14,3.57l.95,5.9" style="fill:none;stroke:#263238;stroke-linecap:round;stroke-linejoin:round"></path><line x1="315.41" y1="312.09" x2="317.63" y2="312.09" style="fill:none;stroke:#263238;stroke-linecap:round;stroke-linejoin:round"></line><path d="M297.45,322.7l-1.12-7a3,3,0,0,1,3-3.57h11.58" style="fill:none;stroke:#263238;stroke-linecap:round;stroke-linejoin:round"></path><path d="M323.31,306.69h-2.58a1.07,1.07,0,0,0-1,.69l-.86,2.21H303.58a3.59,3.59,0,0,0-3.39,2.43" style="fill:none;stroke:#263238;stroke-linecap:round;stroke-linejoin:round"></path><path d="M335.06,313.17a3.56,3.56,0,0,0-3.32-3.55l-.87-2.24a1.07,1.07,0,0,0-1-.69H325" style="fill:none;stroke:#263238;stroke-linecap:round;stroke-linejoin:round"></path><path d="M331.48,338.71a3.57,3.57,0,0,0,3.58-3.57V316.83" style="fill:none;stroke:#263238;stroke-linecap:round;stroke-linejoin:round"></path><path d="M350.93,329l-2.13-13.31a3,3,0,0,1,3-3.57h4.6" style="fill:none;stroke:#263238;stroke-linecap:round;stroke-linejoin:round"></path><path d="M372,338.71H356.06a4.34,4.34,0,0,1-4.15-3.56l-.49-3.09" style="fill:none;stroke:#263238;stroke-linecap:round;stroke-linejoin:round"></path><line x1="379.62" y1="338.71" x2="374.34" y2="338.71" style="fill:none;stroke:#263238;stroke-linecap:round;stroke-linejoin:round"></line><path d="M360.44,312.09h19.28a4.35,4.35,0,0,1,4.14,3.57L387,335.15a3,3,0,0,1-3,3.56" style="fill:none;stroke:#263238;stroke-linecap:round;stroke-linejoin:round"></path><path d="M365,309.59h-8.92a3.58,3.58,0,0,0-3.39,2.43" style="fill:none;stroke:#263238;stroke-linecap:round;stroke-linejoin:round"></path><path d="M387.54,325.4V313.17a3.56,3.56,0,0,0-3.32-3.55l-.87-2.24a1.1,1.1,0,0,0-1-.69h-9.12a1.1,1.1,0,0,0-1,.69l-.86,2.21h-3.44" style="fill:none;stroke:#263238;stroke-linecap:round;stroke-linejoin:round"></path><path d="M384,338.71a3.57,3.57,0,0,0,3.58-3.57v-7.37" style="fill:none;stroke:#263238;stroke-linecap:round;stroke-linejoin:round"></path><path d="M91.93,266.69H64a4.36,4.36,0,0,1-4.15-3.57l-3.1-19.49a3,3,0,0,1,3-3.56H87.69a4.34,4.34,0,0,1,4.14,3.56l3.11,19.49A3,3,0,0,1,91.93,266.69Z" style="fill:none;stroke:#263238;stroke-linecap:round;stroke-linejoin:round"></path><path d="M91.93,266.69a3.58,3.58,0,0,0,3.58-3.58v-22a3.56,3.56,0,0,0-3.32-3.55l-.87-2.24a1.09,1.09,0,0,0-1-.69H81.18a1.09,1.09,0,0,0-1,.69l-.86,2.21H64A3.59,3.59,0,0,0,60.64,240" style="fill:none;stroke:#263238;stroke-linecap:round;stroke-linejoin:round"></path><circle cx="298.88" cy="338.56" r="5.32" style="fill:#fff;stroke:#263238;stroke-linecap:round;stroke-linejoin:round"></circle><path d="M297.88,336.56a.79.79,0,0,0,.88-.63h.53V341h-.79v-3.86h-.62Z" style="fill:#263238"></path><path d="M360.44,338.56a5.32,5.32,0,1,1-5.32-5.31A5.32,5.32,0,0,1,360.44,338.56Z" style="fill:#fff;stroke:#263238;stroke-linecap:round;stroke-linejoin:round"></path><path d="M355.14,336.59c-.25,0-.41.14-.41.5v.54H354v-.49c0-.81.4-1.27,1.19-1.27s1.18.46,1.18,1.27a2.77,2.77,0,0,1-1,2c-.47.5-.6.74-.6,1v.11h1.51V341H354v-.62a2.21,2.21,0,0,1,.79-1.62,2.13,2.13,0,0,0,.79-1.58C355.56,336.72,355.4,336.59,355.14,336.59Z" style="fill:#263238"></path><path d="M304.2,386.9a5.32,5.32,0,1,1-5.32-5.31A5.32,5.32,0,0,1,304.2,386.9Z" style="fill:#fff;stroke:#263238;stroke-linecap:round;stroke-linejoin:round"></path><path d="M299.27,385.51c0-.45-.16-.58-.41-.58s-.41.14-.41.5v.33h-.75v-.28c0-.81.4-1.27,1.18-1.27a1.11,1.11,0,0,1,1.19,1.27v.13a1,1,0,0,1-.56,1h0a1,1,0,0,1,.56,1.06v.4a1.11,1.11,0,0,1-1.19,1.27c-.78,0-1.18-.47-1.18-1.27v-.42h.75v.47c0,.36.16.5.41.5s.41-.13.41-.58v-.39c0-.47-.16-.65-.52-.65h-.27v-.72h.31c.3,0,.48-.13.48-.54Z" style="fill:#263238"></path><path d="M360.44,386.9a5.32,5.32,0,1,1-5.32-5.31A5.32,5.32,0,0,1,360.44,386.9Z" style="fill:#fff;stroke:#263238;stroke-linecap:round;stroke-linejoin:round"></path><path d="M353.79,387.69l1.45-3.42h.87v3.42h.37v.72h-.37v.92h-.8v-.92h-1.52Zm1.52,0v-1.87h0l-.77,1.87Z" style="fill:#263238"></path></g><g id="freepik--Icon--inject-167"><line x1="393.86" y1="229.66" x2="413.05" y2="229.66" style="fill:none;stroke:#263238;stroke-linecap:round;stroke-linejoin:round"></line><polyline points="386.21 242.6 386.21 229.66 390.69 229.66" style="fill:none;stroke:#263238;stroke-linecap:round;stroke-linejoin:round"></polyline><polyline points="390.03 272.25 386.21 272.25 386.21 244.95" style="fill:none;stroke:#263238;stroke-linecap:round;stroke-linejoin:round"></polyline><line x1="397.02" y1="272.24" x2="392.21" y2="272.24" style="fill:none;stroke:#263238;stroke-linecap:round;stroke-linejoin:round"></line><polyline points="422.39 271.56 422.39 272.25 402.03 272.25" style="fill:none;stroke:#263238;stroke-linecap:round;stroke-linejoin:round"></polyline><line x1="422.39" y1="238.99" x2="422.39" y2="268.98" style="fill:none;stroke:#263238;stroke-linecap:round;stroke-linejoin:round"></line><polygon points="428.39 232.99 428.39 266.25 392.21 266.25 392.21 223.66 419.05 223.66 425.33 229.94 428.39 232.99" style="fill:#fff;stroke:#263238;stroke-linecap:round;stroke-linejoin:round"></polygon><polygon points="428.39 232.99 419.05 232.99 419.05 223.66 425.33 229.94 428.39 232.99" style="fill:#fff;stroke:#263238;stroke-linecap:round;stroke-linejoin:round"></polygon><line x1="410.3" y1="240.4" x2="410.3" y2="249.5" style="fill:none;stroke:#263238;stroke-linecap:round;stroke-linejoin:round"></line><line x1="414.85" y1="244.95" x2="405.75" y2="244.95" style="fill:none;stroke:#263238;stroke-linecap:round;stroke-linejoin:round"></line></g><g id="freepik--Duplicate--inject-167"><polygon points="171.3 152.36 171.3 206.17 112.75 206.17 112.75 137.25 156.19 137.25 166.35 147.41 171.3 152.36" style="fill:#28005B;stroke:#263238;stroke-linecap:round;stroke-linejoin:round"></polygon><line x1="125.77" y1="147.61" x2="163.74" y2="147.61" style="fill:none;stroke:#263238;stroke-linecap:round;stroke-linejoin:round"></line><line x1="120.43" y1="154.5" x2="163.74" y2="154.5" style="fill:none;stroke:#263238;stroke-linecap:round;stroke-linejoin:round"></line><line x1="120.43" y1="161.4" x2="163.74" y2="161.4" style="fill:none;stroke:#263238;stroke-linecap:round;stroke-linejoin:round"></line><line x1="120.43" y1="168.29" x2="163.74" y2="168.29" style="fill:none;stroke:#263238;stroke-linecap:round;stroke-linejoin:round"></line><line x1="120.43" y1="175.19" x2="163.74" y2="175.19" style="fill:none;stroke:#263238;stroke-linecap:round;stroke-linejoin:round"></line><line x1="120.43" y1="182.08" x2="163.74" y2="182.08" style="fill:none;stroke:#263238;stroke-linecap:round;stroke-linejoin:round"></line><line x1="120.43" y1="188.97" x2="163.74" y2="188.97" style="fill:none;stroke:#263238;stroke-linecap:round;stroke-linejoin:round"></line><line x1="120.43" y1="195.87" x2="158.4" y2="195.87" style="fill:none;stroke:#263238;stroke-linecap:round;stroke-linejoin:round"></line><polygon points="171.3 152.36 156.19 152.36 156.19 137.25 166.35 147.41 171.3 152.36" style="fill:#28005B;stroke:#263238;stroke-linecap:round;stroke-linejoin:round"></polygon><polygon points="363.08 135.26 363.08 189.07 304.54 189.07 304.54 120.15 347.98 120.15 358.13 130.31 363.08 135.26" style="fill:#28005B;stroke:#263238;stroke-linecap:round;stroke-linejoin:round"></polygon><line x1="317.56" y1="130.51" x2="355.53" y2="130.51" style="fill:none;stroke:#263238;stroke-linecap:round;stroke-linejoin:round"></line><line x1="312.21" y1="137.41" x2="355.53" y2="137.41" style="fill:none;stroke:#263238;stroke-linecap:round;stroke-linejoin:round"></line><line x1="312.21" y1="144.3" x2="355.53" y2="144.3" style="fill:none;stroke:#263238;stroke-linecap:round;stroke-linejoin:round"></line><line x1="312.21" y1="151.19" x2="355.53" y2="151.19" style="fill:none;stroke:#263238;stroke-linecap:round;stroke-linejoin:round"></line><line x1="312.21" y1="158.09" x2="355.53" y2="158.09" style="fill:none;stroke:#263238;stroke-linecap:round;stroke-linejoin:round"></line><line x1="312.21" y1="164.98" x2="355.53" y2="164.98" style="fill:none;stroke:#263238;stroke-linecap:round;stroke-linejoin:round"></line><line x1="312.21" y1="171.88" x2="355.53" y2="171.88" style="fill:none;stroke:#263238;stroke-linecap:round;stroke-linejoin:round"></line><line x1="312.21" y1="178.77" x2="350.19" y2="178.77" style="fill:none;stroke:#263238;stroke-linecap:round;stroke-linejoin:round"></line><polygon points="363.08 135.26 347.98 135.26 347.98 120.15 358.13 130.31 363.08 135.26" style="fill:#28005B;stroke:#263238;stroke-linecap:round;stroke-linejoin:round"></polygon><polyline points="369.41 191.73 369.41 197.73 363.41 197.73" style="fill:none;stroke:#263238;stroke-linecap:round;stroke-linejoin:round"></polyline><line x1="351.57" y1="197.73" x2="310.13" y2="197.73" style="fill:none;stroke:#263238;stroke-linecap:round;stroke-linejoin:round;stroke-dasharray:11.84179973602295,11.84179973602295"></line><polyline points="304.21 197.73 298.21 197.73 298.21 191.73" style="fill:none;stroke:#263238;stroke-linecap:round;stroke-linejoin:round"></polyline><line x1="298.21" y1="181.12" x2="298.21" y2="122.8" style="fill:none;stroke:#263238;stroke-linecap:round;stroke-linejoin:round;stroke-dasharray:10.60420036315918,10.60420036315918"></line><polyline points="298.21 117.5 298.21 111.5 304.21 111.5" style="fill:none;stroke:#263238;stroke-linecap:round;stroke-linejoin:round"></polyline><line x1="316.05" y1="111.5" x2="357.49" y2="111.5" style="fill:none;stroke:#263238;stroke-linecap:round;stroke-linejoin:round;stroke-dasharray:11.84179973602295,11.84179973602295"></line><polyline points="363.41 111.5 369.41 111.5 369.41 117.5" style="fill:none;stroke:#263238;stroke-linecap:round;stroke-linejoin:round"></polyline><line x1="369.41" y1="128.1" x2="369.41" y2="186.42" style="fill:none;stroke:#263238;stroke-linecap:round;stroke-linejoin:round;stroke-dasharray:10.60420036315918,10.60420036315918"></line><line x1="178.45" y1="173.33" x2="285.09" y2="156.57" style="fill:none;stroke:#263238;stroke-linecap:round;stroke-linejoin:round;stroke-dasharray:12"></line><polygon points="287.2 156.07 283.94 154.82 284.72 158.52 287.2 156.07" style="fill:#263238"></polygon><path d="M179.54,173.33a1.09,1.09,0,1,1-1.09-1.09A1.08,1.08,0,0,1,179.54,173.33Z" style="fill:#263238"></path><circle cx="367.1" cy="114.1" r="8.83" transform="translate(26.84 293) rotate(-45)" style="fill:#fff;stroke:#263238;stroke-linecap:round;stroke-linejoin:round"></circle><line x1="367.1" y1="109.55" x2="367.1" y2="118.65" style="fill:none;stroke:#263238;stroke-linecap:round;stroke-linejoin:round"></line><line x1="371.65" y1="114.1" x2="362.56" y2="114.1" style="fill:none;stroke:#263238;stroke-linecap:round;stroke-linejoin:round"></line></g><g id="freepik--Character--inject-167"><path d="M219.32,258.46c-1.18,0-3.48-3.24-4.82-5.3,0,4.26,0,15.14,1.89,14.44C218.67,266.73,221.07,258.46,219.32,258.46Z" style="fill:#fff;stroke:#263238;stroke-linecap:round;stroke-linejoin:round"></path><path d="M214.16,288.31a8.11,8.11,0,0,1-2.63,2c-2.92,1.5-7.32,2.21-12.37,2-20.36-.78-51.36-16.26-39.19-54.51,7.46-23.48,41.42-15.66,50.09-6.72,3,3.13,5.57,9.71,7.19,17.43.59,2.82-.59,5.79-.26,8.8.29,2.72,2.12,5.47,2.17,8.18C219.33,275,217.87,283.78,214.16,288.31Z" style="fill:#fff;stroke:#263238;stroke-linecap:round;stroke-linejoin:round"></path><path d="M211.53,290.32c-2.92,1.5-7.32,2.21-12.37,2a59.81,59.81,0,0,1,3.44-5.09S209.32,288.24,211.53,290.32Z" style="fill:#263238"></path><path d="M205.35,287.09s-1.85,23.16,1.2,28.38-26.34,10.45-38.1,0c0,0,6.72-17.24,6.07-33.89" style="fill:#fff;stroke:#263238;stroke-linecap:round;stroke-linejoin:round"></path><path d="M210.06,242.88s9.15-3.88,6.06-16.72c-4.35-18.11-14.15-6.92-17.41-9.62-5.07-4.18-14.8-8-22.64-1.39s-12.62,7.35-22.63,16.78-10,30.57,0,38.93,12.62,17.16,22.2,19.95,23.86-1,26.73-8.23a37,37,0,0,0,2.87-12.28S213.55,255.62,210.06,242.88Z" style="fill:#263238"></path><path d="M209.38,265.41s-2.07-9-3.38-9.69-5.33,7.14-5.22,10.26,4.35,8.68,6.42,10,2.79-2.39,2.86-2.83" style="fill:#fff;stroke:#263238;stroke-linecap:round;stroke-linejoin:round"></path><path d="M206.44,260.73s-1.64,5.34.76,9.68" style="fill:none;stroke:#263238;stroke-linecap:round;stroke-linejoin:round"></path><path d="M208.73,232.57c-.24,2.86-1,6.29-3.38,8.13" style="fill:none;stroke:#fff;stroke-linecap:round;stroke-linejoin:round;opacity:0.2"></path><path d="M192.71,221.32c3.21-1.45,7.65-3.2,11.19-2.28,4.38,1.15,4.89,7.38,4.93,11.11" style="fill:none;stroke:#fff;stroke-linecap:round;stroke-linejoin:round;opacity:0.2"></path><path d="M199.51,248.59a24.82,24.82,0,0,1-1.92,4.57" style="fill:none;stroke:#fff;stroke-linecap:round;stroke-linejoin:round;opacity:0.2"></path><path d="M184,228.7c4-1.13,8.93-1.9,12.38.93,4.49,3.69,4.8,11.5,3.74,16.71" style="fill:none;stroke:#fff;stroke-linecap:round;stroke-linejoin:round;opacity:0.2"></path><path d="M187.94,243.28c3.45,6.32,3.39,19.23-4.59,22.29" style="fill:none;stroke:#fff;stroke-linecap:round;stroke-linejoin:round;opacity:0.2"></path><path d="M176.63,236.09c3.4-2.07,8.3,2.87,10.07,5.25" style="fill:none;stroke:#fff;stroke-linecap:round;stroke-linejoin:round;opacity:0.2"></path><path d="M185.54,216.68a5,5,0,0,0-5.22-1.82" style="fill:none;stroke:#fff;stroke-linecap:round;stroke-linejoin:round;opacity:0.2"></path><path d="M188.46,222.54a17.86,17.86,0,0,0-1.64-4" style="fill:none;stroke:#fff;stroke-linecap:round;stroke-linejoin:round;opacity:0.2"></path><path d="M178.47,229.79s.53-10.31-7-7.48" style="fill:none;stroke:#fff;stroke-linecap:round;stroke-linejoin:round;opacity:0.2"></path><path d="M163.1,229.87a7,7,0,0,0-4.41.81" style="fill:none;stroke:#fff;stroke-linecap:round;stroke-linejoin:round;opacity:0.2"></path><path d="M169.37,236.62a11,11,0,0,0-4.54-6.12" style="fill:none;stroke:#fff;stroke-linecap:round;stroke-linejoin:round;opacity:0.2"></path><path d="M163.45,271.41a18.2,18.2,0,0,0,3.55,2" style="fill:none;stroke:#fff;stroke-linecap:round;stroke-linejoin:round;opacity:0.2"></path><path d="M159,246.76c-2,6.4-2.71,18,2.62,23.19" style="fill:none;stroke:#fff;stroke-linecap:round;stroke-linejoin:round;opacity:0.2"></path><path d="M169.37,240.43c-4.31-2-7.87.4-9.63,4.44" style="fill:none;stroke:#fff;stroke-linecap:round;stroke-linejoin:round;opacity:0.2"></path><path d="M165.81,307.42l4.89-14.14s35.34-4.65,43.79,7.07S165.81,307.42,165.81,307.42Z" style="fill:#28005B;stroke:#263238;stroke-linecap:round;stroke-linejoin:round"></path><path d="M102.51,287.09s-4-6.55-3.68-8.22-.7-9.48,0-13.26c.72-4,3.69-3.11,3.69-3.11s1.21-7.62,4.37-7.06c0,0,.43-9.34,1.56-11.32s1.7-3.2,1.7-3.2,2.26-1,2.26,2.36v9.61l2.54-10.18,3.68-5.07a5.5,5.5,0,0,1,.42,6.48c-1.56,2.82,0,20.36,0,20.36a6.92,6.92,0,0,0,4.71-4.24s1.29-3.59,4.6-4.48.22,3.06-1,8.72-8.94,18.09-12.92,20.64" style="fill:#fff;stroke:#263238;stroke-linecap:round;stroke-linejoin:round"></path><path d="M116.58,280.43l-9.84,56.46L137,319.23l-6.14,43.62s-38.94,18-47.69,19.89-10.94-23-9.63-29.58S99,296.82,102,282.77" style="fill:#fff;stroke:#263238;stroke-linecap:round;stroke-linejoin:round"></path><path d="M83.7,348.34a54.43,54.43,0,0,1,16.92-9" style="fill:none;stroke:#263238;stroke-linecap:round;stroke-linejoin:round"></path><path d="M147.81,308.33,146.51,349l-.58,18.15-29.59,7.43-7.89,2C92.16,365.58,94.56,337,94.56,337l7.94-5.71,4.76.95S137.2,310,147.81,308.33Z" style="fill:#28005B"></path><g style="clip-path:url(#freepik--clip-path--inject-167)"><path d="M146.51,349l-.58,18.15-29.59,7.43c-2.61-7.87,2.79-5.71,2.79-5.71a16.72,16.72,0,0,1-2.77-9l5.45,2.51c-3.29-8.31,2.26-17.65,2.26-17.65l1,9c-1-9,9.65-24.15,9.65-24.15S142.52,335.74,146.51,349Z" style="fill-opacity:0.7000000000000001;opacity:0.2"></path></g><path d="M147.81,308.33,146.51,349l-.58,18.15-29.59,7.43-7.89,2C92.16,365.58,94.56,337,94.56,337l7.94-5.71,4.76.95S137.2,310,147.81,308.33Z" style="fill:none;stroke:#263238;stroke-linecap:round;stroke-linejoin:round"></path><path d="M123.09,349.29s-.11,8.39,3.9,15.31" style="fill:none;stroke:#263238;stroke-linecap:round;stroke-linejoin:round"></path><path d="M116.36,362.42s6.36,7.78,10.9,9.43" style="fill:none;stroke:#263238;stroke-linecap:round;stroke-linejoin:round"></path><path d="M107.26,332.2s-5.22,10.86-2.21,21.53" style="fill:none;stroke:#263238;stroke-linecap:round;stroke-linejoin:round"></path><path d="M133.35,321.5c-4.49,13.22-6,37.41-6.3,60.16-.38,28.27,1.12,54.32,1.12,54.32,23.58,40.07,76.76,23.47,96,15.79l.1,0c4.4-1.77,7-3.05,7-3.05a606.08,606.08,0,0,0,12.58-68.15h0c3.77-30.39,3.86-53.07,3.19-67.28a154.38,154.38,0,0,0-1.57-17.45s-16.85.21-36.76,1.62h0c-10.78.76-22.45,1.86-32.83,3.47a137.39,137.39,0,0,0-19.31,4.32c-3.38,1-8.92,2.91-11.39,3.83a43,43,0,0,0-4.1,2" style="fill:#28005B"></path><path d="M208.65,297.42c-10.9,4.68-27.72,10.46-33.87,10.27-6.72-.2-14.77-.69-18.27-2.48a137.39,137.39,0,0,1,19.31-4.32C186.2,299.28,197.87,298.18,208.65,297.42Z" style="fill-opacity:0.7000000000000001;opacity:0.2"></path><path d="M224.13,451.77c-19.2,7.68-72.38,24.28-96-15.79,0,0-1.5-26.05-1.12-54.32,7.58,15.6,32.56,25.7,32.56,25.7s-2.76-30.57,0-37.95,10.59-50.28,10.59-50.28,3,8.61-1.75,32.08-2.64,56.15-2.64,56.15c11.64,2.53,39.54,0,39.54,0C185.27,435.82,141,440.62,141,440.62,171.62,466.33,221.64,452.48,224.13,451.77Z" style="fill-opacity:0.7000000000000001;opacity:0.2"></path><path d="M243.8,380.53c-.84-6.64-1.63-11.65-1.63-11.65-2,15.77-22.82,20.83-17.94,15.5s13.58-22,13.58-22c-4.48-13.06,2.83-51.36,2.83-51.36s2.54.69,6.35,2.19C247.66,327.46,247.57,350.14,243.8,380.53Z" style="fill-opacity:0.7000000000000001;opacity:0.2"></path><path d="M231.22,448.69a606.08,606.08,0,0,0,12.58-68.15h0c3.77-30.39,3.86-53.07,3.19-67.28a154.38,154.38,0,0,0-1.57-17.45s-16.85.21-36.76,1.62h0c-10.78.76-22.45,1.86-32.83,3.47a137.39,137.39,0,0,0-19.31,4.32c-3.38,1-8.92,2.91-11.39,3.83a43,43,0,0,0-4.1,2" style="fill:none;stroke:#263238;stroke-linecap:round;stroke-linejoin:round"></path><path d="M133.35,321.5c-4.49,13.22-6,37.41-6.3,60.16-.38,28.27,1.12,54.32,1.12,54.32" style="fill:none;stroke:#263238;stroke-linecap:round;stroke-linejoin:round"></path><path d="M211.12,297.25S174.5,311.85,165.81,311" style="fill:none;stroke:#263238;stroke-linecap:round;stroke-linejoin:round"></path><path d="M170.5,317s-10.62,71.9-7.06,96.43c0,0-2.95,23.56-6.22,38.29" style="fill:none;stroke:#263238;stroke-linecap:round;stroke-linejoin:round"></path><path d="M137,401.19s-1.6,11.07,26.49,12.26,43.76-10.29,43.76-10.29" style="fill:none;stroke:#263238;stroke-linecap:round;stroke-linejoin:round"></path><path d="M325.49,231.08c-.72-5.9-1.24-21.24,0-22.22s7.77-11.16,7.77-11.16c1.41.11,1,2.34,1,2.34s8.49-14.65,10.44-17.61,3.27-1,2.94,2.27c0,0,2.33-4.79,3.38-3.32,2.06,2.9-2.72,17.35-2.72,17.35s4.32-.32,4.11,4.58c0,0,2.63-.82,2.85,3.45.15,2.84-1.22,11.18-4.14,9.44,0,0-1.85,11.89-13,17.62" style="fill:#fff;stroke:#263238;stroke-linecap:round;stroke-linejoin:round"></path><path d="M334.24,200s-2.72,4.84-4.57,8.22-1.85,5.22-1.85,5.22" style="fill:none;stroke:#263238;stroke-linecap:round;stroke-linejoin:round"></path><path d="M347.62,184.7S341.3,198.08,340,200" style="fill:none;stroke:#263238;stroke-linecap:round;stroke-linejoin:round"></path><path d="M348.28,198.73s-2.51,2.51-2.83,2.89" style="fill:none;stroke:#263238;stroke-linecap:round;stroke-linejoin:round"></path><path d="M352.39,203.31s-1,.81-2.59,2.12" style="fill:none;stroke:#263238;stroke-linecap:round;stroke-linejoin:round"></path><path d="M351.1,216.2s.55-3.81.55-4.13,1.74-1.53,2.28-3.27" style="fill:none;stroke:#263238;stroke-linecap:round;stroke-linejoin:round"></path><path d="M326.06,226.11s-1.75,5.64-13.5,27S296,286.43,296,286.43l-22.37,6.13,5.78,35.81S318,308,319.26,305.27s10.77-31.73,14-44.87,7.25-29.18,7.25-29.18" style="fill:#fff;stroke:#263238;stroke-linecap:round;stroke-linejoin:round"></path><path d="M292.81,313.58c-2,8.09-5.72,12.46-8.87,14.79a13.77,13.77,0,0,1-5.49,2.63l-33,18.29s-7-15.92-5.26-34.52a54.19,54.19,0,0,1,5.26-19l31.72-5.61,2.94-2.94h5.22S296.73,297.79,292.81,313.58Z" style="fill:#28005B"></path><g style="clip-path:url(#freepik--clip-path-2--inject-167)"><path d="M283.94,328.37a13.77,13.77,0,0,1-5.49,2.63l-33,18.29s-7-15.92-5.26-34.52c6.23.7,4.17,21.69,6.36,21.93,2.37.27,12.66-15.2,14.77-15.2,3.37,0,.11,14.73,0,15.2.46-.16,15.18-5.67,19.42-13.71C282.84,319,284.37,322.4,283.94,328.37Z" style="fill-opacity:0.7000000000000001;opacity:0.2"></path></g><path d="M292.81,313.58c-2,8.09-5.72,12.46-8.87,14.79a13.77,13.77,0,0,1-5.49,2.63l-33,18.29s-7-15.92-5.26-34.52a54.19,54.19,0,0,1,5.26-19l31.72-5.61,2.94-2.94h5.22S296.73,297.79,292.81,313.58Z" style="fill:none;stroke:#263238;stroke-linecap:round;stroke-linejoin:round"></path><path d="M277.14,290.19a26.54,26.54,0,0,1,7,21.53" style="fill:none;stroke:#263238;stroke-linecap:round;stroke-linejoin:round"></path><path d="M258,328.37s-9.66,12.73-12.58,20.92c0,0-8,26.29-19.08,33.55" style="fill:none;stroke:#263238;stroke-linecap:round;stroke-linejoin:round"></path><path d="M296,286.43s5.09-1.49,7.86.66" style="fill:none;stroke:#263238;stroke-linecap:round;stroke-linejoin:round"></path></g></svg>